<?xml version="1.0" encoding="UTF-8" standalone="no"?>
<svg
   xmlns:dc="http://purl.org/dc/elements/1.1/"
   xmlns:cc="http://creativecommons.org/ns#"
   xmlns:rdf="http://www.w3.org/1999/02/22-rdf-syntax-ns#"
   xmlns:svg="http://www.w3.org/2000/svg"
   xmlns="http://www.w3.org/2000/svg"
   id="svg8"
   version="1.1"
   viewBox="0 0 135.46666 135.46667"
   height="512"
   width="512">
  <defs
     id="defs2">
    <filter
       height="1.1947536"
       y="-0.097376786"
       width="1.1893232"
       x="-0.094661601"
       id="filter1099"
       style="color-interpolation-filters:sRGB">
      <feGaussianBlur
         id="feGaussianBlur1101"
         stdDeviation="4.3586295" />
    </filter>
  </defs>
  <metadata
     id="metadata5">
    <rdf:RDF>
      <cc:Work
         rdf:about="">
        <dc:format>image/svg+xml</dc:format>
        <dc:type
           rdf:resource="http://purl.org/dc/dcmitype/StillImage" />
        <dc:title></dc:title>
      </cc:Work>
    </rdf:RDF>
  </metadata>
  <g
     id="layer5">
    <g
       id="g1045"
       transform="translate(2.7693658,-0.28305191)">
      <path
         style="fill:none;stroke:#c87137;stroke-width:2.11666656;stroke-linecap:butt;stroke-linejoin:miter;stroke-miterlimit:4;stroke-dasharray:none;stroke-opacity:1"
         d="m 59.306528,30.507933 c 2.760105,3.648263 3.356968,10.48143 3.356968,10.48143"
         id="path836" />
      <path
         style="fill:none;stroke:#c87137;stroke-width:2.11666656;stroke-linecap:butt;stroke-linejoin:miter;stroke-miterlimit:4;stroke-dasharray:none;stroke-opacity:1"
         d="M 34.816801,70.115755 C 37.94122,69.03583 40.019261,67.35178 45.538188,67.654326"
         id="path838" />
      <path
         id="path840"
         d="M 75.729062,93.844604 C 75.341959,90.521017 74.924279,87.179777 73.267633,83.123217"
         style="fill:none;stroke:#c87137;stroke-width:2.11666656;stroke-linecap:butt;stroke-linejoin:miter;stroke-miterlimit:4;stroke-dasharray:none;stroke-opacity:1" />
      <path
         style="fill:none;stroke:#c87137;stroke-width:2.11666656;stroke-linecap:butt;stroke-linejoin:miter;stroke-miterlimit:4;stroke-dasharray:none;stroke-opacity:1"
         d="m 98.621742,52.882152 c -4.454112,2.345229 -7.754974,2.692972 -10.721387,2.461429"
         id="path842" />
      <path
         style="fill:none;stroke:#c87137;stroke-width:2.11666656;stroke-linecap:butt;stroke-linejoin:miter;stroke-miterlimit:4;stroke-dasharray:none;stroke-opacity:1"
         d="m 52.806009,73.796975 c 15.412793,9.084851 26.096697,5.105647 33.066429,-9.134358"
         id="path844" />
      <path
         style="fill:none;stroke:#c87137;stroke-width:2.11666656;stroke-linecap:butt;stroke-linejoin:miter;stroke-miterlimit:4;stroke-dasharray:none;stroke-opacity:1"
         d="m 51.730924,50.911835 c -0.225055,3.784293 1.983796,13.43856 3.495583,15.092641 1.246689,0.84879 4.669469,0.35173 5.863983,-1.29701 0.182101,-1.111472 -0.483077,-4.545386 -1.314704,-7.900897 -0.831631,-3.35551 -1.829705,-6.632618 -2.313406,-7.430473 -1.457863,-1.011042 -4.592775,-1.296487 -5.731456,1.535739 z"
         id="path848" />
      <path
         id="path868"
         style="fill:none;stroke:#c87137;stroke-width:2.11666656;stroke-linecap:butt;stroke-linejoin:miter;stroke-miterlimit:4;stroke-dasharray:none;stroke-opacity:1"
         d="m 22.598831,79.248066 4.540896,2.198259 4.540896,2.198259 -5.514329,7.000475 c 0,0 5.695078,5.39424 3.956472,6.86262 -1.850739,1.563078 -4.226064,-2.659845 -5.811146,-3.788327 -1.205501,0.396329 -1.099329,10.004678 -4.114138,9.017088 -2.768708,-1.34524 0.682163,-8.766286 0.157906,-9.016391 -2.640307,-0.211465 -6.673426,7.557481 -8.643833,5.883498 -3.1320394,-3.019678 5.232058,-7.790345 3.44064,-8.87835 -0.829411,-0.392962 -5.9356444,-0.889819 -5.4062594,-4.18552 0.09405,-1.557903 10.1773854,1.836468 10.8642154,-0.263062 0.528312,-1.270378 1.98868,-7.028548 1.98868,-7.028549 z M 30.894558,61.896744 27.139727,81.446325 M 107.21572,25.863272 c 3.0025,-9.693053 3.96157,-13.12299 6.12212,-10.951409 2.16053,2.171581 -1.65168,8.587268 -1.65168,8.587268 m 0,0 c -0.87603,6.631218 -2.10213,6.869469 1.39326,8.659492 3.49539,1.79002 5.7706,1.123669 6.75807,0.424279 m -12.24648,6.227939 7.51491,5.535561 0.33522,-5.668441 c 0,0 4.47777,-4.334833 4.75277,-7.413813 0.27503,-3.078981 -2.32626,-6.350552 -5.26524,-7.516704 -2.939,-1.166153 -7.9662,0.552461 -8.74792,4.256933 -0.78175,3.704466 3.73436,7.31643 2.46586,9.378247 -1.26851,2.061815 -1.0556,1.428217 -1.0556,1.428217 z m -3.27541,23.085903 7.03287,-20.318124 m -7.03287,20.318124 c 0,20.27466 -16.43586,36.71052 -36.71052,36.710521 -20.274661,0 -36.710521,-16.43586 -36.710522,-36.710521 0,-20.274661 16.435861,-36.710522 36.710522,-36.710522 20.274661,10e-7 36.71052,16.435861 36.71052,36.710522 z M 40.491747,105.50519 c 10.089425,10.35669 10.817004,14.78691 8.879296,15.78919 -1.937698,1.00226 -5.696178,0.31736 -9.304322,-3.42439 -0.903672,-0.9328 -3.099222,-2.70645 -3.235031,-4.04808 -0.135802,-1.34166 0.451763,-1.75014 1.205463,-3.19326 -1.120252,0.30944 -3.001573,0.42427 -3.830262,0.5411 -0.921163,0.12987 -1.491961,-0.62152 -1.950383,-1.6054 1.603607,-2.6727 5.228457,-5.59595 8.235239,-4.05916 z M 56.885233,96.927674 C 60.177964,106.90139 43.25353,109.24667 43.25353,109.24667 m 32.342066,3.09663 c 14.45759,0.18899 18.104701,2.80715 17.443243,4.88602 -0.661458,2.07886 -3.803387,4.25223 -9.000558,4.15774 -1.298584,-0.0206 -4.105223,0.27774 -5.149938,-0.57491 -1.044714,-0.85266 -0.918093,-1.55698 -1.405587,-3.11037 -0.573331,1.01094 -1.822424,2.42244 -2.325785,3.09102 -0.559531,0.74319 -1.49445,0.6155 -2.514315,0.24395 -0.755953,-3.0238 -0.259862,-7.65402 2.95294,-8.69345 z m 4.431687,-15.747559 c 8.513481,8.509499 1.158783,16.086089 1.158783,16.086089" />
      <path
         style="fill:#c87137;fill-opacity:1;stroke:none;stroke-width:0.26458332px;stroke-linecap:butt;stroke-linejoin:miter;stroke-opacity:1"
         d="m 57.46238,49.376097 c -0.313189,9.60455 -1.040811,15.313423 -2.235872,16.628379 2.079304,0.116093 4.209543,0.456304 5.863981,-1.297011 C 60.953026,59.537459 59.133475,54.460902 57.46238,49.376097 Z"
         id="path884" />
      <path
         id="path887"
         d="m 70.384049,46.413918 c -0.225055,3.784293 1.983796,13.43856 3.495583,15.092641 1.246689,0.84879 4.669469,0.35173 5.863983,-1.29701 0.182101,-1.111472 -0.483077,-4.545386 -1.314704,-7.900897 -0.831631,-3.35551 -1.829705,-6.632618 -2.313406,-7.430473 -1.457863,-1.011042 -4.592775,-1.296487 -5.731456,1.535739 z"
         style="fill:none;stroke:#c87137;stroke-width:2.11666656;stroke-linecap:butt;stroke-linejoin:miter;stroke-miterlimit:4;stroke-dasharray:none;stroke-opacity:1" />
      <path
         id="path889"
         d="m 76.115505,44.87818 c -0.313189,9.60455 -1.040811,15.313423 -2.235872,16.628379 2.079304,0.116093 4.209543,0.456304 5.863981,-1.297011 C 79.606151,55.039542 77.7866,49.962985 76.115505,44.87818 Z"
         style="fill:#c87137;fill-opacity:1;stroke:none;stroke-width:0.26458332px;stroke-linecap:butt;stroke-linejoin:miter;stroke-opacity:1" />
    </g>
    <g
       style="filter:url(#filter1099)"
       id="g1089"
       transform="translate(2.7726017,-0.26441785)">
      <path
         id="path1069"
         d="m 59.306528,30.507933 c 2.760105,3.648263 3.356968,10.48143 3.356968,10.48143"
         style="fill:none;stroke:#c87137;stroke-width:2.11666656;stroke-linecap:butt;stroke-linejoin:miter;stroke-miterlimit:4;stroke-dasharray:none;stroke-opacity:1" />
      <path
         id="path1071"
         d="M 34.816801,70.115755 C 37.94122,69.03583 40.019261,67.35178 45.538188,67.654326"
         style="fill:none;stroke:#c87137;stroke-width:2.11666656;stroke-linecap:butt;stroke-linejoin:miter;stroke-miterlimit:4;stroke-dasharray:none;stroke-opacity:1" />
      <path
         style="fill:none;stroke:#c87137;stroke-width:2.11666656;stroke-linecap:butt;stroke-linejoin:miter;stroke-miterlimit:4;stroke-dasharray:none;stroke-opacity:1"
         d="M 75.729062,93.844604 C 75.341959,90.521017 74.924279,87.179777 73.267633,83.123217"
         id="path1073" />
      <path
         id="path1075"
         d="m 98.621742,52.882152 c -4.454112,2.345229 -7.754974,2.692972 -10.721387,2.461429"
         style="fill:none;stroke:#c87137;stroke-width:2.11666656;stroke-linecap:butt;stroke-linejoin:miter;stroke-miterlimit:4;stroke-dasharray:none;stroke-opacity:1" />
      <path
         id="path1077"
         d="m 52.806009,73.796975 c 15.412793,9.084851 26.096697,5.105647 33.066429,-9.134358"
         style="fill:none;stroke:#c87137;stroke-width:2.11666656;stroke-linecap:butt;stroke-linejoin:miter;stroke-miterlimit:4;stroke-dasharray:none;stroke-opacity:1" />
      <path
         id="path1079"
         d="m 51.730924,50.911835 c -0.225055,3.784293 1.983796,13.43856 3.495583,15.092641 1.246689,0.84879 4.669469,0.35173 5.863983,-1.29701 0.182101,-1.111472 -0.483077,-4.545386 -1.314704,-7.900897 -0.831631,-3.35551 -1.829705,-6.632618 -2.313406,-7.430473 -1.457863,-1.011042 -4.592775,-1.296487 -5.731456,1.535739 z"
         style="fill:none;stroke:#c87137;stroke-width:2.11666656;stroke-linecap:butt;stroke-linejoin:miter;stroke-miterlimit:4;stroke-dasharray:none;stroke-opacity:1" />
      <path
         d="m 22.598831,79.248066 4.540896,2.198259 4.540896,2.198259 -5.514329,7.000475 c 0,0 5.695078,5.39424 3.956472,6.86262 -1.850739,1.563078 -4.226064,-2.659845 -5.811146,-3.788327 -1.205501,0.396329 -1.099329,10.004678 -4.114138,9.017088 -2.768708,-1.34524 0.682163,-8.766286 0.157906,-9.016391 -2.640307,-0.211465 -6.673426,7.557481 -8.643833,5.883498 -3.1320394,-3.019678 5.232058,-7.790345 3.44064,-8.87835 -0.829411,-0.392962 -5.9356444,-0.889819 -5.4062594,-4.18552 0.09405,-1.557903 10.1773854,1.836468 10.8642154,-0.263062 0.528312,-1.270378 1.98868,-7.028548 1.98868,-7.028549 z M 30.894558,61.896744 27.139727,81.446325 M 107.21572,25.863272 c 3.0025,-9.693053 3.96157,-13.12299 6.12212,-10.951409 2.16053,2.171581 -1.65168,8.587268 -1.65168,8.587268 m 0,0 c -0.87603,6.631218 -2.10213,6.869469 1.39326,8.659492 3.49539,1.79002 5.7706,1.123669 6.75807,0.424279 m -12.24648,6.227939 7.51491,5.535561 0.33522,-5.668441 c 0,0 4.47777,-4.334833 4.75277,-7.413813 0.27503,-3.078981 -2.32626,-6.350552 -5.26524,-7.516704 -2.939,-1.166153 -7.9662,0.552461 -8.74792,4.256933 -0.78175,3.704466 3.73436,7.31643 2.46586,9.378247 -1.26851,2.061815 -1.0556,1.428217 -1.0556,1.428217 z m -3.27541,23.085903 7.03287,-20.318124 m -7.03287,20.318124 c 0,20.27466 -16.43586,36.71052 -36.71052,36.710521 -20.274661,0 -36.710521,-16.43586 -36.710522,-36.710521 0,-20.274661 16.435861,-36.710522 36.710522,-36.710522 20.274661,10e-7 36.71052,16.435861 36.71052,36.710522 z M 40.491747,105.50519 c 10.089425,10.35669 10.817004,14.78691 8.879296,15.78919 -1.937698,1.00226 -5.696178,0.31736 -9.304322,-3.42439 -0.903672,-0.9328 -3.099222,-2.70645 -3.235031,-4.04808 -0.135802,-1.34166 0.451763,-1.75014 1.205463,-3.19326 -1.120252,0.30944 -3.001573,0.42427 -3.830262,0.5411 -0.921163,0.12987 -1.491961,-0.62152 -1.950383,-1.6054 1.603607,-2.6727 5.228457,-5.59595 8.235239,-4.05916 z M 56.885233,96.927674 C 60.177964,106.90139 43.25353,109.24667 43.25353,109.24667 m 32.342066,3.09663 c 14.45759,0.18899 18.104701,2.80715 17.443243,4.88602 -0.661458,2.07886 -3.803387,4.25223 -9.000558,4.15774 -1.298584,-0.0206 -4.105223,0.27774 -5.149938,-0.57491 -1.044714,-0.85266 -0.918093,-1.55698 -1.405587,-3.11037 -0.573331,1.01094 -1.822424,2.42244 -2.325785,3.09102 -0.559531,0.74319 -1.49445,0.6155 -2.514315,0.24395 -0.755953,-3.0238 -0.259862,-7.65402 2.95294,-8.69345 z m 4.431687,-15.747559 c 8.513481,8.509499 1.158783,16.086089 1.158783,16.086089"
         style="fill:none;stroke:#c87137;stroke-width:2.11666656;stroke-linecap:butt;stroke-linejoin:miter;stroke-miterlimit:4;stroke-dasharray:none;stroke-opacity:1"
         id="path1081" />
      <path
         id="path1083"
         d="m 57.46238,49.376097 c -0.313189,9.60455 -1.040811,15.313423 -2.235872,16.628379 2.079304,0.116093 4.209543,0.456304 5.863981,-1.297011 C 60.953026,59.537459 59.133475,54.460902 57.46238,49.376097 Z"
         style="fill:#c87137;fill-opacity:1;stroke:none;stroke-width:0.26458332px;stroke-linecap:butt;stroke-linejoin:miter;stroke-opacity:1" />
      <path
         style="fill:none;stroke:#c87137;stroke-width:2.11666656;stroke-linecap:butt;stroke-linejoin:miter;stroke-miterlimit:4;stroke-dasharray:none;stroke-opacity:1"
         d="m 70.384049,46.413918 c -0.225055,3.784293 1.983796,13.43856 3.495583,15.092641 1.246689,0.84879 4.669469,0.35173 5.863983,-1.29701 0.182101,-1.111472 -0.483077,-4.545386 -1.314704,-7.900897 -0.831631,-3.35551 -1.829705,-6.632618 -2.313406,-7.430473 -1.457863,-1.011042 -4.592775,-1.296487 -5.731456,1.535739 z"
         id="path1085" />
      <path
         style="fill:#c87137;fill-opacity:1;stroke:none;stroke-width:0.26458332px;stroke-linecap:butt;stroke-linejoin:miter;stroke-opacity:1"
         d="m 76.115505,44.87818 c -0.313189,9.60455 -1.040811,15.313423 -2.235872,16.628379 2.079304,0.116093 4.209543,0.456304 5.863981,-1.297011 C 79.606151,55.039542 77.7866,49.962985 76.115505,44.87818 Z"
         id="path1087" />
    </g>
  </g>
</svg>
