<?xml version="1.0" encoding="UTF-8" standalone="no"?>
<svg
   xmlns:dc="http://purl.org/dc/elements/1.1/"
   xmlns:cc="http://creativecommons.org/ns#"
   xmlns:rdf="http://www.w3.org/1999/02/22-rdf-syntax-ns#"
   xmlns:svg="http://www.w3.org/2000/svg"
   xmlns="http://www.w3.org/2000/svg"
   id="svg8"
   version="1.1"
   viewBox="0 0 135.46666 135.46667"
   height="512"
   width="512">
  <defs
     id="defs2">
    <filter
       height="1.192"
       y="-0.096000001"
       width="1.192"
       x="-0.096000001"
       id="filter907"
       style="color-interpolation-filters:sRGB">
      <feGaussianBlur
         id="feGaussianBlur909"
         stdDeviation="16.64" />
    </filter>
  </defs>
  <metadata
     id="metadata5">
    <rdf:RDF>
      <cc:Work
         rdf:about="">
        <dc:format>image/svg+xml</dc:format>
        <dc:type
           rdf:resource="http://purl.org/dc/dcmitype/StillImage" />
        <dc:title></dc:title>
      </cc:Work>
    </rdf:RDF>
  </metadata>
  <g
     id="layer5">
    <path
       id="path882"
       d="m 67.733329,12.699995 a 55.033333,55.033333 0 0 0 -8.109583,0.650089 l -3.681428,13.747483 a 42.333333,42.333333 0 0 0 -8.580355,3.578592 L 35.02473,23.551012 A 55.033333,55.033333 0 0 0 23.55308,35.027314 l 7.100342,12.294341 a 42.333333,42.333333 0 0 0 -3.545519,8.618077 l -13.73663,3.678327 a 55.033333,55.033333 0 0 0 -0.671277,8.115269 55.033333,55.033333 0 0 0 0.65009,8.109582 l 13.747998,3.681428 a 42.333333,42.333333 0 0 0 3.578592,8.580871 L 23.55153,100.44193 a 55.033333,55.033333 0 0 0 11.476301,11.47217 l 12.294341,-7.10086 a 42.333333,42.333333 0 0 0 8.617561,3.54552 l 3.678327,13.73663 a 55.033333,55.033333 0 0 0 8.115269,0.67128 55.033333,55.033333 0 0 0 8.109582,-0.65009 l 3.681428,-13.74749 a 42.333333,42.333333 0 0 0 8.580871,-3.57859 l 12.33672,7.12515 A 55.033333,55.033333 0 0 0 111.9141,100.43883 L 104.81375,88.145 a 42.333333,42.333333 0 0 0 3.54501,-8.618077 l 13.73663,-3.678327 a 55.033333,55.033333 0 0 0 0.67128,-8.115268 55.033333,55.033333 0 0 0 -0.64958,-8.109583 l -13.748,-3.681428 a 42.333333,42.333333 0 0 0 -3.57859,-8.580871 l 7.12515,-12.336717 A 55.033333,55.033333 0 0 0 100.43934,23.552562 L 88.145001,30.652905 A 42.333333,42.333333 0 0 0 79.526924,27.107901 L 75.848594,13.371272 A 55.033333,55.033333 0 0 0 67.733329,12.699995 Z M 50.799995,42.333328 h 33.866667 l 12.699999,25.4 -12.699999,25.399999 H 50.799995 L 38.099996,67.733328 Z"
       style="opacity:1;fill:none;fill-opacity:1;stroke:#c87137;stroke-width:2.11666656;stroke-linecap:butt;stroke-linejoin:round;stroke-miterlimit:4;stroke-dasharray:none;stroke-dashoffset:0;stroke-opacity:1;paint-order:stroke fill markers" />
    <path
       transform="matrix(0.26458333,0,0,0.26458333,2.1335984,2.1335984)"
       style="opacity:1;fill:none;fill-opacity:1;stroke:#c87137;stroke-width:8;stroke-linecap:butt;stroke-linejoin:round;stroke-miterlimit:4;stroke-dasharray:none;stroke-dashoffset:0;stroke-opacity:1;paint-order:stroke fill markers;filter:url(#filter907)"
       d="m 247.936,39.936 a 208,208 0 0 0 -30.65039,2.457031 L 203.37155,94.35202 a 160,160 0 0 0 -32.42969,13.52539 L 124.31295,80.947719 A 208,208 0 0 0 80.955532,124.32272 l 26.835938,46.4668 A 160,160 0 0 0 94.391081,203.36178 L 42.47311,217.26412 A 208,208 0 0 0 39.936,247.936 a 208,208 0 0 0 2.457032,30.65039 l 51.960939,13.91406 a 160,160 0 0 0 13.525389,32.43164 l -26.929688,46.62696 a 208,208 0 0 0 43.374998,43.35937 l 46.4668,-26.83789 a 160,160 0 0 0 32.57031,13.40039 l 13.90234,51.91797 a 208,208 0 0 0 30.67188,2.53711 208,208 0 0 0 30.65039,-2.45703 l 13.91406,-51.95899 a 160,160 0 0 0 32.43164,-13.52539 l 46.62696,26.92969 a 208,208 0 0 0 43.35937,-43.37695 l -26.83594,-46.46485 a 160,160 0 0 0 13.39844,-32.57226 l 51.91797,-13.90234 A 208,208 0 0 0 455.936,247.936 208,208 0 0 0 453.48092,217.28561 l -51.96094,-13.91406 a 160,160 0 0 0 -13.52539,-32.43164 l 26.92969,-46.62696 a 208,208 0 0 0 -43.375,-43.359372 l -46.4668,26.835942 A 160,160 0 0 0 292.51022,94.39108 L 278.60787,42.473109 A 208,208 0 0 0 247.936,39.936 Z m -64,112 h 128 l 48,96 -48,96 h -128 l -48,-96 z"
       id="path905" />
  </g>
</svg>
