<?xml version="1.0" encoding="UTF-8" standalone="no"?>
<!-- Created with Inkscape (http://www.inkscape.org/) -->

<svg
   xmlns:dc="http://purl.org/dc/elements/1.1/"
   xmlns:cc="http://creativecommons.org/ns#"
   xmlns:rdf="http://www.w3.org/1999/02/22-rdf-syntax-ns#"
   xmlns:svg="http://www.w3.org/2000/svg"
   xmlns="http://www.w3.org/2000/svg"
   xmlns:sodipodi="http://sodipodi.sourceforge.net/DTD/sodipodi-0.dtd"
   xmlns:inkscape="http://www.inkscape.org/namespaces/inkscape"
   width="64"
   height="64"
   viewBox="0 0 16.933333 16.933334"
   version="1.1"
   id="svg8"
   inkscape:version="0.92.5 (2060ec1f9f, 2020-04-08)"
   sodipodi:docname="_appbar-5.svg">
  <defs
     id="defs2">
    <filter
       inkscape:collect="always"
       style="color-interpolation-filters:sRGB"
       id="filter837"
       x="-0.06"
       width="1.12"
       y="-0.06"
       height="1.12">
      <feGaussianBlur
         inkscape:collect="always"
         stdDeviation="1.4"
         id="feGaussianBlur839" />
    </filter>
  </defs>
  <sodipodi:namedview
     id="base"
     pagecolor="#595959"
     bordercolor="#666666"
     borderopacity="1.0"
     inkscape:pageopacity="0"
     inkscape:pageshadow="2"
     inkscape:zoom="4"
     inkscape:cx="32.050826"
     inkscape:cy="24.244253"
     inkscape:document-units="px"
     inkscape:current-layer="layer5"
     showgrid="true"
     inkscape:window-width="1019"
     inkscape:window-height="1016"
     inkscape:window-x="901"
     inkscape:window-y="27"
     inkscape:window-maximized="0"
     units="px"
     inkscape:snap-grids="true"
     inkscape:snap-page="true">
    <inkscape:grid
       type="xygrid"
       id="grid940"
       spacingx="1.0583333"
       spacingy="1.0583333"
       empspacing="4" />
  </sodipodi:namedview>
  <metadata
     id="metadata5">
    <rdf:RDF>
      <cc:Work
         rdf:about="">
        <dc:format>image/svg+xml</dc:format>
        <dc:type
           rdf:resource="http://purl.org/dc/dcmitype/StillImage" />
        <dc:title></dc:title>
      </cc:Work>
    </rdf:RDF>
  </metadata>
  <g
     inkscape:groupmode="layer"
     id="layer4"
     inkscape:label="Background"
     style="display:inline"
     transform="translate(0,-118.53332)"
     sodipodi:insensitive="true">
    <rect
       style="opacity:1;fill:#ffffff;fill-opacity:1;stroke:none;stroke-width:0.06614583;stroke-miterlimit:4;stroke-dasharray:none;stroke-dashoffset:0;stroke-opacity:1"
       id="rect895"
       width="16.933334"
       height="16.933332"
       x="0"
       y="118.53332" />
  </g>
  <g
     inkscape:groupmode="layer"
     id="layer5"
     inkscape:label="Content"
     transform="translate(0,-118.53332)">
    <path
       style="opacity:1;fill:#c87137;fill-opacity:1;stroke:none;stroke-width:2;stroke-linecap:butt;stroke-linejoin:round;stroke-miterlimit:4;stroke-dasharray:none;stroke-dashoffset:0;stroke-opacity:1;paint-order:stroke fill markers"
       d="M 4 4 L 4 60 L 16 60 L 16 16 L 60 16 L 60 4 L 4 4 z M 20 20 L 20 60 L 28 60 L 28 28 L 60 28 L 60 20 L 20 20 z M 32 32 L 32 60 L 60 60 L 60 32 L 32 32 z "
       transform="matrix(0.26458334,0,0,0.26458334,0,118.53332)"
       id="rect815" />
    <path
       id="path833"
       d="m -17.991666,119.59165 v 14.81667 h 3.175 v -11.64167 h 11.6416667 v -3.175 z m 4.233333,4.23334 v 10.58333 h 2.116667 v -8.46667 h 8.4666667 v -2.11666 z m 3.175,3.175 v 7.40833 h 7.4083337 v -7.40833 z"
       style="opacity:1;fill:#c87137;fill-opacity:1;stroke:none;stroke-width:0.5291667;stroke-linecap:butt;stroke-linejoin:round;stroke-miterlimit:4;stroke-dasharray:none;stroke-dashoffset:0;stroke-opacity:1;paint-order:stroke fill markers"
       inkscape:connector-curvature="0" />
    <path
       id="path835"
       transform="matrix(0.26458334,0,0,0.26458334,0,118.53332)"
       d="M 4 4 L 4 60 L 16 60 L 16 16 L 60 16 L 60 4 L 4 4 z M 20 20 L 20 60 L 28 60 L 28 28 L 60 28 L 60 20 L 20 20 z M 32 32 L 32 60 L 60 60 L 60 32 L 32 32 z "
       style="opacity:1;fill:#c87137;fill-opacity:1;stroke:none;stroke-width:2;stroke-linecap:butt;stroke-linejoin:round;stroke-miterlimit:4;stroke-dasharray:none;stroke-dashoffset:0;stroke-opacity:1;paint-order:stroke fill markers;filter:url(#filter837)" />
  </g>
</svg>
