<?xml version="1.0" encoding="UTF-8" standalone="no"?>
<!-- Created with Inkscape (http://www.inkscape.org/) -->

<svg
   xmlns:dc="http://purl.org/dc/elements/1.1/"
   xmlns:cc="http://creativecommons.org/ns#"
   xmlns:rdf="http://www.w3.org/1999/02/22-rdf-syntax-ns#"
   xmlns:svg="http://www.w3.org/2000/svg"
   xmlns="http://www.w3.org/2000/svg"
   xmlns:sodipodi="http://sodipodi.sourceforge.net/DTD/sodipodi-0.dtd"
   xmlns:inkscape="http://www.inkscape.org/namespaces/inkscape"
   width="64"
   height="64"
   viewBox="0 0 16.933333 16.933334"
   version="1.1"
   id="svg8"
   inkscape:version="0.92.5 (2060ec1f9f, 2020-04-08)"
   sodipodi:docname="_appbar-4.svg">
  <defs
     id="defs2">
    <filter
       inkscape:collect="always"
       style="color-interpolation-filters:sRGB"
       id="filter837"
       x="-0.060000005"
       width="1.12"
       y="-0.059999995"
       height="1.12">
      <feGaussianBlur
         inkscape:collect="always"
         stdDeviation="0.37041672"
         id="feGaussianBlur839" />
    </filter>
  </defs>
  <sodipodi:namedview
     id="base"
     pagecolor="#595959"
     bordercolor="#666666"
     borderopacity="1.0"
     inkscape:pageopacity="0"
     inkscape:pageshadow="2"
     inkscape:zoom="4"
     inkscape:cx="28.661502"
     inkscape:cy="35.651696"
     inkscape:document-units="px"
     inkscape:current-layer="layer5"
     showgrid="true"
     inkscape:window-width="960"
     inkscape:window-height="1016"
     inkscape:window-x="960"
     inkscape:window-y="27"
     inkscape:window-maximized="0"
     units="px"
     inkscape:snap-grids="true"
     inkscape:snap-page="true">
    <inkscape:grid
       type="xygrid"
       id="grid940"
       spacingx="1.0583333"
       spacingy="1.0583333"
       empspacing="4" />
  </sodipodi:namedview>
  <metadata
     id="metadata5">
    <rdf:RDF>
      <cc:Work
         rdf:about="">
        <dc:format>image/svg+xml</dc:format>
        <dc:type
           rdf:resource="http://purl.org/dc/dcmitype/StillImage" />
        <dc:title></dc:title>
      </cc:Work>
    </rdf:RDF>
  </metadata>
  <g
     inkscape:groupmode="layer"
     id="layer4"
     inkscape:label="Background"
     style="display:inline"
     transform="translate(0,-118.53332)"
     sodipodi:insensitive="true">
    <rect
       style="opacity:1;fill:#ffffff;fill-opacity:1;stroke:none;stroke-width:0.06614583;stroke-miterlimit:4;stroke-dasharray:none;stroke-dashoffset:0;stroke-opacity:1"
       id="rect895"
       width="16.933334"
       height="16.933332"
       x="0"
       y="118.53332" />
  </g>
  <g
     inkscape:groupmode="layer"
     id="layer5"
     inkscape:label="Content"
     transform="translate(0,-118.53332)">
    <path
       style="opacity:1;fill:#c87137;fill-opacity:1;stroke:none;stroke-width:2;stroke-linecap:butt;stroke-linejoin:round;stroke-miterlimit:4;stroke-dasharray:none;stroke-dashoffset:0;stroke-opacity:1;paint-order:stroke fill markers"
       d="M 4 4 L 4 28 L 16 28 L 16 24 L 24 32 L 16 40 L 16 36 L 4 36 L 4 60 L 28 60 L 28 48 L 24 48 L 32 40 L 40 48 L 36 48 L 36 60 L 60 60 L 60 36 L 48 36 L 48 40 L 40 32 L 48 24 L 48 28 L 60 28 L 60 4 L 36 4 L 36 16 L 40 16 L 32 24 L 24 16 L 28 16 L 28 4 L 4 4 z M 32 28 L 36 32 L 32 36 L 28 32 L 32 28 z "
       transform="matrix(0.26458334,0,0,0.26458334,0,118.53332)"
       id="rect815" />
    <path
       id="path833"
       d="m -20.108333,119.59165 v 6.35 h 3.175 v -1.05833 l 2.116666,2.11667 -2.116666,2.11666 v -1.05833 h -3.175 v 6.35 h 6.35 v -3.175 h -1.058334 l 2.116667,-2.11667 2.116667,2.11667 h -1.058333 v 3.175 h 6.3499997 v -6.35 h -3.1750001 v 1.05833 l -2.1166666,-2.11666 2.1166666,-2.11667 v 1.05833 h 3.1750001 v -6.35 h -6.3499997 v 3.175 h 1.058333 l -2.116667,2.11667 -2.116667,-2.11667 h 1.058334 v -3.175 z m 7.408333,6.35 1.058334,1.05834 -1.058334,1.05833 -1.058333,-1.05833 z"
       style="opacity:1;fill:#c87137;fill-opacity:1;stroke:none;stroke-width:0.5291667;stroke-linecap:butt;stroke-linejoin:round;stroke-miterlimit:4;stroke-dasharray:none;stroke-dashoffset:0;stroke-opacity:1;paint-order:stroke fill markers"
       inkscape:connector-curvature="0" />
    <path
       id="path835"
       d="m 1.0583325,119.59165 v 6.35 h 3.175 v -1.05833 l 2.1166668,2.11667 -2.1166668,2.11666 v -1.05833 h -3.175 v 6.35 h 6.3500001 v -3.175 H 6.3499993 l 2.1166667,-2.11667 2.116667,2.11667 H 9.5249993 v 3.175 H 15.875 v -6.35 h -3.175001 v 1.05833 l -2.116666,-2.11666 2.116666,-2.11667 v 1.05833 H 15.875 v -6.35 H 9.5249993 v 3.175 h 1.0583337 l -2.116667,2.11667 -2.1166667,-2.11667 h 1.0583333 v -3.175 z m 7.4083335,6.35 1.0583333,1.05834 -1.0583333,1.05833 -1.0583334,-1.05833 z"
       style="opacity:1;fill:#c87137;fill-opacity:1;stroke:none;stroke-width:0.5291667;stroke-linecap:butt;stroke-linejoin:round;stroke-miterlimit:4;stroke-dasharray:none;stroke-dashoffset:0;stroke-opacity:1;paint-order:stroke fill markers;filter:url(#filter837)"
       inkscape:connector-curvature="0" />
  </g>
</svg>
