<?xml version="1.0" encoding="UTF-8" standalone="no"?>
<!-- Created with Inkscape (http://www.inkscape.org/) -->

<svg
   xmlns:dc="http://purl.org/dc/elements/1.1/"
   xmlns:cc="http://creativecommons.org/ns#"
   xmlns:rdf="http://www.w3.org/1999/02/22-rdf-syntax-ns#"
   xmlns:svg="http://www.w3.org/2000/svg"
   xmlns="http://www.w3.org/2000/svg"
   xmlns:sodipodi="http://sodipodi.sourceforge.net/DTD/sodipodi-0.dtd"
   xmlns:inkscape="http://www.inkscape.org/namespaces/inkscape"
   width="64"
   height="64"
   viewBox="0 0 16.933333 16.933334"
   version="1.1"
   id="svg8"
   inkscape:version="0.92.5 (2060ec1f9f, 2020-04-08)"
   sodipodi:docname="_appbar-1.svg">
  <defs
     id="defs2">
    <filter
       inkscape:collect="always"
       style="color-interpolation-filters:sRGB"
       id="filter839"
       x="-0.06"
       width="1.12"
       y="-0.06"
       height="1.12">
      <feGaussianBlur
         inkscape:collect="always"
         stdDeviation="1.4"
         id="feGaussianBlur841" />
    </filter>
  </defs>
  <sodipodi:namedview
     id="base"
     pagecolor="#595959"
     bordercolor="#666666"
     borderopacity="1.0"
     inkscape:pageopacity="0"
     inkscape:pageshadow="2"
     inkscape:zoom="2.8"
     inkscape:cx="16.516131"
     inkscape:cy="15.586355"
     inkscape:document-units="px"
     inkscape:current-layer="layer5"
     showgrid="true"
     inkscape:window-width="1015"
     inkscape:window-height="1011"
     inkscape:window-x="905"
     inkscape:window-y="27"
     inkscape:window-maximized="0"
     units="px"
     inkscape:snap-grids="true"
     inkscape:snap-page="true">
    <inkscape:grid
       type="xygrid"
       id="grid940"
       spacingx="1.0583333"
       spacingy="1.0583333"
       empspacing="4" />
  </sodipodi:namedview>
  <metadata
     id="metadata5">
    <rdf:RDF>
      <cc:Work
         rdf:about="">
        <dc:format>image/svg+xml</dc:format>
        <dc:type
           rdf:resource="http://purl.org/dc/dcmitype/StillImage" />
        <dc:title></dc:title>
      </cc:Work>
    </rdf:RDF>
  </metadata>
  <g
     inkscape:groupmode="layer"
     id="layer4"
     inkscape:label="Background"
     style="display:inline"
     transform="translate(0,-118.53332)"
     sodipodi:insensitive="true">
    <rect
       style="opacity:1;fill:#ffffff;fill-opacity:1;stroke:none;stroke-width:0.06614583;stroke-miterlimit:4;stroke-dasharray:none;stroke-dashoffset:0;stroke-opacity:1"
       id="rect895"
       width="16.933334"
       height="16.933332"
       x="0"
       y="118.53332" />
  </g>
  <g
     inkscape:groupmode="layer"
     id="layer5"
     inkscape:label="Content"
     transform="translate(0,-118.53332)">
    <path
       style="opacity:1;fill:#c87137;fill-opacity:1;stroke:none;stroke-width:2;stroke-linecap:butt;stroke-linejoin:round;stroke-miterlimit:4;stroke-dasharray:none;stroke-dashoffset:0;stroke-opacity:1;paint-order:stroke fill markers"
       d="M 4 4 L 4 24 L 8 24 L 12 28 L 36 28 L 32 4 L 4 4 z M 36 4 L 40 28 L 56 28 L 60 32 L 60 4 L 36 4 z M 60 32 L 56 36 L 40 36 L 36 60 L 60 60 L 60 32 z M 4 36 L 4 60 L 32 60 L 36 36 L 4 36 z "
       transform="matrix(0.26458334,0,0,0.26458334,0,118.53332)"
       id="rect815" />
    <path
       id="path823"
       d="m -16.933333,119.59165 v 5.29166 H -15.875 l 1.058334,1.05834 h 6.3499996 l -1.0583334,-6.35 z m 8.4666666,0 1.0583334,6.35 h 4.2333334 l 1.0583334,1.05833 v -7.40833 z m 6.3500002,7.40833 -1.0583334,1.05833 H -7.408333 l -1.0583334,6.35 h 6.3500002 z m -14.8166668,1.05833 v 6.35 h 7.4083332 l 1.0583334,-6.35 z"
       style="opacity:1;fill:#c87137;fill-opacity:1;stroke:none;stroke-width:0.5291667;stroke-linecap:butt;stroke-linejoin:round;stroke-miterlimit:4;stroke-dasharray:none;stroke-dashoffset:0;stroke-opacity:1;paint-order:stroke fill markers"
       inkscape:connector-curvature="0" />
    <path
       id="path825"
       d="M 4 4 L 4 24 L 8 24 L 12 28 L 36 28 L 32 4 L 4 4 z M 36 4 L 40 28 L 56 28 L 60 32 L 60 4 L 36 4 z M 60 32 L 56 36 L 40 36 L 36 60 L 60 60 L 60 32 z M 4 36 L 4 60 L 32 60 L 36 36 L 4 36 z "
       style="opacity:1;fill:#c87137;fill-opacity:1;stroke:none;stroke-width:2;stroke-linecap:butt;stroke-linejoin:round;stroke-miterlimit:4;stroke-dasharray:none;stroke-dashoffset:0;stroke-opacity:1;paint-order:stroke fill markers;filter:url(#filter839)"
       transform="matrix(0.26458334,0,0,0.26458334,0,118.53332)" />
  </g>
</svg>
