<?xml version="1.0" encoding="UTF-8" standalone="no"?>
<!-- Created with Inkscape (http://www.inkscape.org/) -->

<svg
   xmlns:dc="http://purl.org/dc/elements/1.1/"
   xmlns:cc="http://creativecommons.org/ns#"
   xmlns:rdf="http://www.w3.org/1999/02/22-rdf-syntax-ns#"
   xmlns:svg="http://www.w3.org/2000/svg"
   xmlns="http://www.w3.org/2000/svg"
   xmlns:sodipodi="http://sodipodi.sourceforge.net/DTD/sodipodi-0.dtd"
   xmlns:inkscape="http://www.inkscape.org/namespaces/inkscape"
   width="512"
   height="512"
   viewBox="0 0 135.46666 135.46667"
   version="1.1"
   id="svg8"
   inkscape:version="0.92.5 (2060ec1f9f, 2020-04-08)"
   sodipodi:docname="cog.svg">
  <defs
     id="defs2">
    <filter
       inkscape:collect="always"
       style="color-interpolation-filters:sRGB"
       id="filter7289"
       x="-0.023979998"
       width="1.04796"
       y="-0.024020035"
       height="1.0480401">
      <feGaussianBlur
         inkscape:collect="always"
         stdDeviation="1.1828348"
         id="feGaussianBlur7291" />
    </filter>
    <filter
       inkscape:collect="always"
       style="color-interpolation-filters:sRGB"
       id="filter7565"
       x="-0.048"
       width="1.096"
       y="-0.048"
       height="1.096">
      <feGaussianBlur
         inkscape:collect="always"
         stdDeviation="0.3027756"
         id="feGaussianBlur7567" />
    </filter>
    <filter
       inkscape:collect="always"
       style="color-interpolation-filters:sRGB"
       id="filter7972"
       x="-0.036"
       width="1.072"
       y="-0.036"
       height="1.072">
      <feGaussianBlur
         inkscape:collect="always"
         stdDeviation="0.1259259"
         id="feGaussianBlur7974" />
    </filter>
  </defs>
  <sodipodi:namedview
     id="base"
     pagecolor="#595959"
     bordercolor="#666666"
     borderopacity="1.0"
     inkscape:pageopacity="0"
     inkscape:pageshadow="2"
     inkscape:zoom="0.70710678"
     inkscape:cx="250.44499"
     inkscape:cy="277.14179"
     inkscape:document-units="px"
     inkscape:current-layer="layer5"
     showgrid="true"
     inkscape:window-width="1920"
     inkscape:window-height="1016"
     inkscape:window-x="0"
     inkscape:window-y="27"
     inkscape:window-maximized="1"
     units="px"
     inkscape:snap-grids="false"
     inkscape:snap-page="true">
    <inkscape:grid
       type="xygrid"
       id="grid940"
       spacingx="4.2333333"
       spacingy="4.2333333"
       empspacing="4" />
  </sodipodi:namedview>
  <metadata
     id="metadata5">
    <rdf:RDF>
      <cc:Work
         rdf:about="">
        <dc:format>image/svg+xml</dc:format>
        <dc:type
           rdf:resource="http://purl.org/dc/dcmitype/StillImage" />
        <dc:title></dc:title>
      </cc:Work>
    </rdf:RDF>
  </metadata>
  <g
     inkscape:groupmode="layer"
     id="layer4"
     inkscape:label="Background"
     style="display:inline"
     sodipodi:insensitive="true">
    <rect
       style="opacity:1;fill:#ffffff;fill-opacity:1;stroke:none;stroke-width:0.52916664;stroke-miterlimit:4;stroke-dasharray:none;stroke-dashoffset:0;stroke-opacity:1"
       id="rect895"
       width="135.46666"
       height="135.46666"
       x="0"
       y="0" />
  </g>
  <g
     inkscape:groupmode="layer"
     id="layer5"
     inkscape:label="Content">
    <g
       id="g7247"
       style="stroke-width:4.23333311;stroke-miterlimit:4;stroke-dasharray:none"
       transform="translate(-154.51666,142.875)">
      <path
         style="fill:none;stroke:#c87137;stroke-width:4.23333311;stroke-linecap:butt;stroke-linejoin:miter;stroke-miterlimit:4;stroke-dasharray:none;stroke-opacity:1"
         d="m 50.799996,50.799999 h 33.86667 L 101.6,67.733332 84.666666,84.666665 H 50.799996 L 33.866666,67.733332 Z"
         id="path7175"
         inkscape:connector-curvature="0"
         sodipodi:nodetypes="ccccccc" />
      <path
         d="M 31.715757,92.060952 25.551188,76.548503 m 33.715478,33.518167 -15.577227,-6.03204 m 47.785739,-0.12563 -15.275179,6.15767 m 33.866671,-33.866663 -6.61781,15.735316 m 0.45324,-48.181096 6.16457,15.512447 M 76.351193,25.748512 91.928417,31.780551 m -47.785739,0.125627 15.275181,-6.157666 m -33.866671,33.86666 6.617811,-15.735315 m 11.520441,60.154773 -14.967082,8.98025 -5.98685,-5.98684 8.98025,-14.967088 m 0.45324,-48.181096 -8.98025,-14.967088 5.98684,-5.986836 14.967091,8.980246 M 25.551188,76.548504 8.617858,72.315179 v -8.466678 l 16.93333,-4.233329 m 33.866671,-33.86666 4.233333,-16.93333 h 8.466667 l 4.233333,16.93333 m 15.577226,6.032039 14.967082,-8.980251 5.98685,5.98684 -8.98025,14.967086 m -0.45324,48.181096 8.98025,14.967088 -5.98684,5.98684 L 91.475179,103.909 M 110.06667,59.266674 127,63.499999 v 8.466678 l -16.93333,4.233329 M 76.199999,110.06667 71.966666,127 h -8.466667 l -4.233333,-16.93333"
         style="fill:none;stroke:#c87137;stroke-width:4.23333311;stroke-linecap:round;stroke-linejoin:round;stroke-miterlimit:4;stroke-dasharray:none;stroke-opacity:1"
         id="path7237"
         inkscape:connector-curvature="0" />
    </g>
    <g
       id="g7253"
       transform="translate(-151.87083,7.9374999)"
       style="stroke-width:4.23333328;stroke-miterlimit:4;stroke-dasharray:none">
      <path
         sodipodi:nodetypes="ccccccc"
         inkscape:connector-curvature="0"
         id="path7249"
         d="m 50.799996,50.799999 h 33.86667 L 101.6,67.733332 84.666666,84.666665 H 50.799996 L 33.866666,67.733332 Z"
         style="fill:none;stroke:#c87137;stroke-width:4.23333328;stroke-linecap:butt;stroke-linejoin:miter;stroke-miterlimit:4;stroke-dasharray:none;stroke-opacity:1" />
      <path
         id="path7251"
         style="fill:none;stroke:#c87137;stroke-width:4.23333328;stroke-linecap:round;stroke-linejoin:round;stroke-miterlimit:4;stroke-dasharray:none;stroke-opacity:1"
         d="M 31.715757,92.060952 25.551188,76.548503 m 33.715478,33.518167 -15.577227,-6.03204 m 47.785739,-0.12563 -15.275179,6.15767 m 33.866671,-33.866663 -6.61781,15.735316 m 0.45324,-48.181096 6.16457,15.512447 M 76.351193,25.748512 91.928417,31.780551 m -47.785739,0.125627 15.275181,-6.157666 m -33.866671,33.86666 6.617811,-15.735315 m 11.520441,60.154773 -14.967082,8.98025 -5.98685,-5.98684 8.98025,-14.967088 m 0.45324,-48.181096 -8.98025,-14.967088 5.98684,-5.986836 14.967091,8.980246 M 25.551188,76.548504 8.617858,72.315179 v -8.466678 l 16.93333,-4.233329 m 33.866671,-33.86666 4.233333,-16.93333 h 8.466667 l 4.233333,16.93333 m 15.577226,6.032039 14.967082,-8.980251 5.98685,5.98684 -8.98025,14.967086 m -0.45324,48.181096 8.98025,14.967088 -5.98684,5.98684 L 91.475179,103.909 M 110.06667,59.266674 127,63.499999 v 8.466678 l -16.93333,4.233329 M 76.199999,110.06667 71.966666,127 h -8.466667 l -4.233333,-16.93333"
         inkscape:connector-curvature="0" />
    </g>
    <g
       id="g7259"
       style="stroke-width:4.23333311;stroke-miterlimit:4;stroke-dasharray:none;filter:url(#filter7289)"
       transform="translate(-154.51666,142.875)">
      <path
         sodipodi:nodetypes="ccccccc"
         inkscape:connector-curvature="0"
         id="path7255"
         d="m 50.799996,50.799999 h 33.86667 L 101.6,67.733332 84.666666,84.666665 H 50.799996 L 33.866666,67.733332 Z"
         style="fill:none;stroke:#c87137;stroke-width:4.23333311;stroke-linecap:butt;stroke-linejoin:miter;stroke-miterlimit:4;stroke-dasharray:none;stroke-opacity:1" />
      <path
         id="path7257"
         style="fill:none;stroke:#c87137;stroke-width:4.23333311;stroke-linecap:round;stroke-linejoin:round;stroke-miterlimit:4;stroke-dasharray:none;stroke-opacity:1"
         d="M 31.715757,92.060952 25.551188,76.548503 m 33.715478,33.518167 -15.577227,-6.03204 m 47.785739,-0.12563 -15.275179,6.15767 m 33.866671,-33.866663 -6.61781,15.735316 m 0.45324,-48.181096 6.16457,15.512447 M 76.351193,25.748512 91.928417,31.780551 m -47.785739,0.125627 15.275181,-6.157666 m -33.866671,33.86666 6.617811,-15.735315 m 11.520441,60.154773 -14.967082,8.98025 -5.98685,-5.98684 8.98025,-14.967088 m 0.45324,-48.181096 -8.98025,-14.967088 5.98684,-5.986836 14.967091,8.980246 M 25.551188,76.548504 8.617858,72.315179 v -8.466678 l 16.93333,-4.233329 m 33.866671,-33.86666 4.233333,-16.93333 h 8.466667 l 4.233333,16.93333 m 15.577226,6.032039 14.967082,-8.980251 5.98685,5.98684 -8.98025,14.967086 m -0.45324,48.181096 8.98025,14.967088 -5.98684,5.98684 L 91.475179,103.909 M 110.06667,59.266674 127,63.499999 v 8.466678 l -16.93333,4.233329 M 76.199999,110.06667 71.966666,127 h -8.466667 l -4.233333,-16.93333"
         inkscape:connector-curvature="0" />
    </g>
    <g
       id="g7525"
       inkscape:label="Gear16"
       transform="matrix(7.6726141,0,0,7.6726141,67.73333,215.90755)"
       style="fill:none;fill-opacity:1;stroke:#c87137;stroke-width:0.50325006;stroke-miterlimit:4;stroke-dasharray:none;stroke-opacity:1">
      <path
         id="path7521"
         style="fill:none;fill-opacity:1;stroke:#c87137;stroke-width:0.50325006;stroke-miterlimit:4;stroke-dasharray:none;stroke-opacity:1"
         d="m 5.86593,-0.58837 0.73614,-0.07384 0.10305,0.00181 0.86427,0.26424 V 0.39616 L 6.70512,0.6604 6.60207,0.66221 5.86593,0.58837 5.64457,1.70121 6.35294,1.9147 6.44744,1.95581 7.14481,2.53068 6.84161,3.26268 5.942,3.17606 5.8461,3.13831 5.19425,2.78838 4.56388,3.7318 5.13662,4.20012 5.2082,4.27426 5.6325,5.07224 5.07224,5.6325 4.27426,5.2082 4.20012,5.13662 3.7318,4.56388 2.78838,5.19425 3.13831,5.8461 3.17606,5.942 3.26268,6.84161 2.53068,7.14481 1.95581,6.44744 1.9147,6.35294 1.70121,5.64457 0.58837,5.86593 0.66221,6.60207 0.6604,6.70512 0.39616,7.56939 H -0.39616 L -0.6604,6.70512 -0.66221,6.60207 -0.58837,5.86593 -1.70121,5.64457 -1.9147,6.35294 -1.95581,6.44744 -2.53068,7.14481 -3.26268,6.84161 -3.17606,5.942 -3.13831,5.8461 -2.78838,5.19425 -3.7318,4.56388 -4.20012,5.13662 -4.27426,5.2082 -5.07224,5.6325 -5.6325,5.07224 -5.2082,4.27426 -5.13662,4.20012 -4.56388,3.7318 -5.19425,2.78838 -5.8461,3.13831 -5.942,3.17606 -6.84161,3.26268 -7.14481,2.53068 -6.44744,1.95581 -6.35294,1.9147 -5.64457,1.70121 -5.86593,0.58837 -6.60207,0.66221 -6.70512,0.6604 -7.56939,0.39616 v -0.79232 l 0.86427,-0.26424 0.10305,-0.00181 0.73614,0.07384 0.22136,-1.11284 -0.70837,-0.21349 -0.0945,-0.04111 -0.69737,-0.57487 0.3032,-0.732 0.89961,0.08662 0.0959,0.03775 0.65185,0.34993 0.63037,-0.94342 -0.57274,-0.46832 -0.07158,-0.07414 -0.4243,-0.79798 0.56026,-0.56026 0.79798,0.4243 0.07414,0.07158 0.46832,0.57274 0.94342,-0.63037 -0.34993,-0.65185 -0.03775,-0.0959 -0.08662,-0.89961 0.732,-0.3032 0.57487,0.69737 0.04111,0.0945 0.21349,0.70837 1.11284,-0.22136 -0.07384,-0.73614 0.00181,-0.10305 0.26424,-0.86427 h 0.79232 l 0.26424,0.86427 0.00181,0.10305 -0.07384,0.73614 1.11284,0.22136 0.21349,-0.70837 0.04111,-0.0945 0.57487,-0.69737 0.732,0.3032 L 3.17606,-5.942 3.13831,-5.8461 2.78838,-5.19425 3.7318,-4.56388 4.20012,-5.13662 4.27426,-5.2082 5.07224,-5.6325 5.6325,-5.07224 5.2082,-4.27426 5.13662,-4.20012 4.56388,-3.7318 5.19425,-2.78838 5.8461,-3.13831 5.942,-3.17606 l 0.89961,-0.08662 0.3032,0.732 -0.69737,0.57487 -0.0945,0.04111 -0.70837,0.21349 z"
         inkscape:connector-curvature="0" />
      <circle
         id="path7523"
         style="fill:none;fill-opacity:1;stroke:#c87137;stroke-width:0.50325006;stroke-miterlimit:4;stroke-dasharray:none;stroke-opacity:1"
         cx="0"
         cy="0"
         r="2.6458333" />
    </g>
    <g
       style="fill:none;fill-opacity:1;stroke:#c87137;stroke-width:0.50325006;stroke-miterlimit:4;stroke-dasharray:none;stroke-opacity:1;filter:url(#filter7565)"
       transform="matrix(7.6726141,0,0,7.6726141,67.73333,215.90755)"
       inkscape:label="Gear16"
       id="g7539">
      <path
         inkscape:connector-curvature="0"
         d="m 5.86593,-0.58837 0.73614,-0.07384 0.10305,0.00181 0.86427,0.26424 V 0.39616 L 6.70512,0.6604 6.60207,0.66221 5.86593,0.58837 5.64457,1.70121 6.35294,1.9147 6.44744,1.95581 7.14481,2.53068 6.84161,3.26268 5.942,3.17606 5.8461,3.13831 5.19425,2.78838 4.56388,3.7318 5.13662,4.20012 5.2082,4.27426 5.6325,5.07224 5.07224,5.6325 4.27426,5.2082 4.20012,5.13662 3.7318,4.56388 2.78838,5.19425 3.13831,5.8461 3.17606,5.942 3.26268,6.84161 2.53068,7.14481 1.95581,6.44744 1.9147,6.35294 1.70121,5.64457 0.58837,5.86593 0.66221,6.60207 0.6604,6.70512 0.39616,7.56939 H -0.39616 L -0.6604,6.70512 -0.66221,6.60207 -0.58837,5.86593 -1.70121,5.64457 -1.9147,6.35294 -1.95581,6.44744 -2.53068,7.14481 -3.26268,6.84161 -3.17606,5.942 -3.13831,5.8461 -2.78838,5.19425 -3.7318,4.56388 -4.20012,5.13662 -4.27426,5.2082 -5.07224,5.6325 -5.6325,5.07224 -5.2082,4.27426 -5.13662,4.20012 -4.56388,3.7318 -5.19425,2.78838 -5.8461,3.13831 -5.942,3.17606 -6.84161,3.26268 -7.14481,2.53068 -6.44744,1.95581 -6.35294,1.9147 -5.64457,1.70121 -5.86593,0.58837 -6.60207,0.66221 -6.70512,0.6604 -7.56939,0.39616 v -0.79232 l 0.86427,-0.26424 0.10305,-0.00181 0.73614,0.07384 0.22136,-1.11284 -0.70837,-0.21349 -0.0945,-0.04111 -0.69737,-0.57487 0.3032,-0.732 0.89961,0.08662 0.0959,0.03775 0.65185,0.34993 0.63037,-0.94342 -0.57274,-0.46832 -0.07158,-0.07414 -0.4243,-0.79798 0.56026,-0.56026 0.79798,0.4243 0.07414,0.07158 0.46832,0.57274 0.94342,-0.63037 -0.34993,-0.65185 -0.03775,-0.0959 -0.08662,-0.89961 0.732,-0.3032 0.57487,0.69737 0.04111,0.0945 0.21349,0.70837 1.11284,-0.22136 -0.07384,-0.73614 0.00181,-0.10305 0.26424,-0.86427 h 0.79232 l 0.26424,0.86427 0.00181,0.10305 -0.07384,0.73614 1.11284,0.22136 0.21349,-0.70837 0.04111,-0.0945 0.57487,-0.69737 0.732,0.3032 L 3.17606,-5.942 3.13831,-5.8461 2.78838,-5.19425 3.7318,-4.56388 4.20012,-5.13662 4.27426,-5.2082 5.07224,-5.6325 5.6325,-5.07224 5.2082,-4.27426 5.13662,-4.20012 4.56388,-3.7318 5.19425,-2.78838 5.8461,-3.13831 5.942,-3.17606 l 0.89961,-0.08662 0.3032,0.732 -0.69737,0.57487 -0.0945,0.04111 -0.70837,0.21349 z"
         style="fill:none;fill-opacity:1;stroke:#c87137;stroke-width:0.50325006;stroke-miterlimit:4;stroke-dasharray:none;stroke-opacity:1"
         id="path7535" />
      <circle
         r="2.6458333"
         cy="0"
         cx="0"
         style="fill:none;fill-opacity:1;stroke:#c87137;stroke-width:0.50325006;stroke-miterlimit:4;stroke-dasharray:none;stroke-opacity:1"
         id="circle7537" />
    </g>
    <g
       id="g7954"
       inkscape:label="Gear8"
       transform="matrix(15.438048,0,0,15.438048,67.504286,67.937156)"
       style="stroke:#c87137;stroke-opacity:1">
      <path
         id="path7950"
         style="fill:none;stroke:#c87137;stroke-width:0.26458332;stroke-opacity:1"
         d="m 2.47715,-0.49736 0.77554,-0.15571 0.05136,-0.00415 0.89348,0.32104 V 0.33618 L 3.30405,0.65722 3.25269,0.65307 2.47715,0.49736 2.10329,1.39992 2.76179,1.83821 2.80104,1.87159 3.20582,2.73039 2.73039,3.20582 1.87159,2.80104 1.83821,2.76179 1.39992,2.10329 0.49736,2.47715 0.65307,3.25269 0.65722,3.30405 0.33618,4.19753 H -0.33618 L -0.65722,3.30405 -0.65307,3.25269 -0.49736,2.47715 -1.39992,2.10329 -1.83821,2.76179 -1.87159,2.80104 -2.73039,3.20582 -3.20582,2.73039 -2.80104,1.87159 -2.76179,1.83821 -2.10329,1.39992 -2.47715,0.49736 -3.25269,0.65307 -3.30405,0.65722 -4.19753,0.33618 v -0.67236 l 0.89348,-0.32104 0.05136,0.00415 0.77554,0.15571 0.37386,-0.90256 -0.6585,-0.43829 -0.03925,-0.03338 -0.40478,-0.8588 0.47543,-0.47543 0.8588,0.40478 0.03338,0.03925 0.43829,0.6585 0.90256,-0.37386 -0.15571,-0.77554 -0.00415,-0.05136 0.32104,-0.89348 h 0.67236 l 0.32104,0.89348 -0.00415,0.05136 -0.15571,0.77554 0.90256,0.37386 0.43829,-0.6585 0.03338,-0.03925 0.8588,-0.40478 0.47543,0.47543 -0.40478,0.8588 -0.03925,0.03338 -0.6585,0.43829 z"
         inkscape:connector-curvature="0" />
      <circle
         id="path7952"
         style="fill:none;stroke:#c87137;stroke-width:0.26458332;stroke-opacity:1"
         cx="0"
         cy="0"
         r="1.3229166" />
    </g>
    <g
       style="stroke:#c87137;stroke-opacity:1;filter:url(#filter7972)"
       transform="matrix(15.438048,0,0,15.438048,67.504286,67.937156)"
       inkscape:label="Gear8"
       id="g7970">
      <path
         inkscape:connector-curvature="0"
         d="m 2.47715,-0.49736 0.77554,-0.15571 0.05136,-0.00415 0.89348,0.32104 V 0.33618 L 3.30405,0.65722 3.25269,0.65307 2.47715,0.49736 2.10329,1.39992 2.76179,1.83821 2.80104,1.87159 3.20582,2.73039 2.73039,3.20582 1.87159,2.80104 1.83821,2.76179 1.39992,2.10329 0.49736,2.47715 0.65307,3.25269 0.65722,3.30405 0.33618,4.19753 H -0.33618 L -0.65722,3.30405 -0.65307,3.25269 -0.49736,2.47715 -1.39992,2.10329 -1.83821,2.76179 -1.87159,2.80104 -2.73039,3.20582 -3.20582,2.73039 -2.80104,1.87159 -2.76179,1.83821 -2.10329,1.39992 -2.47715,0.49736 -3.25269,0.65307 -3.30405,0.65722 -4.19753,0.33618 v -0.67236 l 0.89348,-0.32104 0.05136,0.00415 0.77554,0.15571 0.37386,-0.90256 -0.6585,-0.43829 -0.03925,-0.03338 -0.40478,-0.8588 0.47543,-0.47543 0.8588,0.40478 0.03338,0.03925 0.43829,0.6585 0.90256,-0.37386 -0.15571,-0.77554 -0.00415,-0.05136 0.32104,-0.89348 h 0.67236 l 0.32104,0.89348 -0.00415,0.05136 -0.15571,0.77554 0.90256,0.37386 0.43829,-0.6585 0.03338,-0.03925 0.8588,-0.40478 0.47543,0.47543 -0.40478,0.8588 -0.03925,0.03338 -0.6585,0.43829 z"
         style="fill:none;stroke:#c87137;stroke-width:0.26458332;stroke-opacity:1"
         id="path7966" />
      <circle
         r="1.3229166"
         cy="0"
         cx="0"
         style="fill:none;stroke:#c87137;stroke-width:0.26458332;stroke-opacity:1"
         id="circle7968" />
    </g>
  </g>
</svg>
