<?xml version="1.0" encoding="UTF-8" standalone="no"?>
<svg
   xmlns:dc="http://purl.org/dc/elements/1.1/"
   xmlns:cc="http://creativecommons.org/ns#"
   xmlns:rdf="http://www.w3.org/1999/02/22-rdf-syntax-ns#"
   xmlns:svg="http://www.w3.org/2000/svg"
   xmlns="http://www.w3.org/2000/svg"
   id="svg8"
   version="1.1"
   viewBox="0 0 269.88321 269.8832"
   height="269.88318mm"
   width="269.88321mm">
  <defs
     id="defs2">
    <filter
       id="filter1622"
       style="color-interpolation-filters:sRGB">
      <feGaussianBlur
         id="feGaussianBlur1620"
         result="blur"
         stdDeviation="2 2" />
    </filter>
    <filter
       id="filter1622-9"
       style="color-interpolation-filters:sRGB">
      <feGaussianBlur
         id="feGaussianBlur1620-4"
         result="blur"
         stdDeviation="2 2" />
    </filter>
  </defs>
  <metadata
     id="metadata5">
    <rdf:RDF>
      <cc:Work
         rdf:about="">
        <dc:format>image/svg+xml</dc:format>
        <dc:type
           rdf:resource="http://purl.org/dc/dcmitype/StillImage" />
        <dc:title></dc:title>
      </cc:Work>
    </rdf:RDF>
  </metadata>
  <g
     transform="translate(-111.20183,79.576984)"
     id="layer1">
    <path
       d="M 380.55588,55.368709 H 246.13934 m 134.41654,-8.40104 H 246.13934 m 134.41654,-8.40103 H 246.13934 m 134.41654,-8.40102 H 246.13934 m 134.41654,-8.40105 H 246.13934 m 134.41654,-8.40103 H 246.13934 M 380.55588,4.9625086 H 246.13934 m 134.41654,-8.40104 H 246.13934 M 380.55588,-11.839561 H 246.13934 m 134.41654,-8.40102 H 246.13934 m 134.41654,-8.40106 H 246.13934 m 134.41654,-8.40102 H 246.13934 m 134.41654,-8.40103 H 246.13934 m 134.41654,-8.40102 H 246.13934 m 134.41654,-8.40103 H 246.13934 m 134.41654,-8.401036 H 246.13934 m 134.41654,-8.40104 H 246.13934 m 134.41656,2e-5 V 55.368709 M 372.15487,-79.047797 V 55.368709 M 363.75382,-79.047797 V 55.368709 M 355.3528,-79.047797 V 55.368709 M 346.95177,-79.047797 V 55.368709 M 338.55072,-79.047797 V 55.368709 M 330.14969,-79.047797 V 55.368709 M 321.74867,-79.047797 V 55.368709 M 313.34762,-79.047797 V 55.368709 M 304.94659,-79.047797 V 55.368709 M 296.54556,-79.047797 V 55.368709 M 288.14452,-79.047797 V 55.368709 M 279.74349,-79.047797 V 55.368709 M 271.34245,-79.047797 V 55.368709 M 262.94142,-79.047797 V 55.368709 M 254.54038,-79.047797 V 55.368709 M 246.13935,-79.047797 V 55.368709 m 0.008,0 H 111.731 m 134.41653,-8.40104 H 111.731 m 134.41653,-8.40103 H 111.731 m 134.41653,-8.40102 H 111.731 m 134.41653,-8.40105 H 111.731 m 134.41653,-8.40103 H 111.731 M 246.14753,4.9625086 H 111.731 m 134.41653,-8.40104 H 111.731 M 246.14753,-11.839561 H 111.731 m 134.41653,-8.40102 H 111.731 m 134.41653,-8.40106 H 111.731 m 134.41653,-8.40102 H 111.731 m 134.41653,-8.40103 H 111.731 m 134.41653,-8.40102 H 111.731 m 134.41653,-8.40103 H 111.731 m 134.41653,-8.401036 H 111.731 m 134.41653,-8.40104 H 111.731 m 134.41655,2e-5 V 55.368709 M 237.74652,-79.047797 V 55.368709 M 229.34547,-79.047797 V 55.368709 M 220.94445,-79.047797 V 55.368709 M 212.54342,-79.047797 V 55.368709 M 204.14237,-79.047797 V 55.368709 M 195.74134,-79.047797 V 55.368709 M 187.34032,-79.047797 V 55.368709 M 178.93927,-79.047797 V 55.368709 M 170.53824,-79.047797 V 55.368709 M 162.13722,-79.047797 V 55.368709 M 153.73617,-79.047797 V 55.368709 M 145.33515,-79.047797 V 55.368709 M 136.9341,-79.047797 V 55.368709 M 128.53307,-79.047797 V 55.368709 M 120.13204,-79.047797 V 55.368709 M 111.73102,-79.047797 V 55.368709 M 380.55588,189.77704 H 246.13934 m 134.41654,-8.40103 H 246.13934 m 134.41654,-8.40103 H 246.13934 m 134.41654,-8.40102 H 246.13934 m 134.41654,-8.40105 H 246.13934 m 134.41654,-8.40103 H 246.13934 m 134.41654,-8.40103 H 246.13934 m 134.41654,-8.40104 H 246.13934 m 134.41654,-8.40103 H 246.13934 m 134.41654,-8.40102 H 246.13934 M 380.55588,105.7667 H 246.13934 M 380.55588,97.365679 H 246.13934 m 134.41654,-8.40102 H 246.13934 m 134.41654,-8.40104 H 246.13934 m 134.41654,-8.40102 H 246.13934 m 134.41654,-8.40104 H 246.13934 m 134.41654,-8.40104 H 246.13934 m 134.41656,2e-5 V 189.77704 M 372.15487,55.360539 V 189.77704 M 363.75382,55.360539 V 189.77704 M 355.3528,55.360539 V 189.77704 M 346.95177,55.360539 V 189.77704 M 338.55072,55.360539 V 189.77704 M 330.14969,55.360539 V 189.77704 M 321.74867,55.360539 V 189.77704 M 313.34762,55.360539 V 189.77704 M 304.94659,55.360539 V 189.77704 M 296.54556,55.360539 V 189.77704 M 288.14452,55.360539 V 189.77704 M 279.74349,55.360539 V 189.77704 M 271.34245,55.360539 V 189.77704 M 262.94142,55.360539 V 189.77704 M 254.54038,55.360539 V 189.77704 M 246.13935,55.360539 V 189.77704 m 0.008,0 H 111.731 m 134.41653,-8.40103 H 111.731 m 134.41653,-8.40103 H 111.731 m 134.41653,-8.40102 H 111.731 m 134.41653,-8.40105 H 111.731 m 134.41653,-8.40103 H 111.731 m 134.41653,-8.40103 H 111.731 m 134.41653,-8.40104 H 111.731 m 134.41653,-8.40103 H 111.731 m 134.41653,-8.40102 H 111.731 M 246.14753,105.7667 H 111.731 M 246.14753,97.365679 H 111.731 m 134.41653,-8.40102 H 111.731 m 134.41653,-8.40104 H 111.731 m 134.41653,-8.40102 H 111.731 m 134.41653,-8.40104 H 111.731 m 134.41653,-8.40104 H 111.731 m 134.41655,2e-5 V 189.77704 M 237.74652,55.360539 V 189.77704 M 229.34547,55.360539 V 189.77704 M 220.94445,55.360539 V 189.77704 M 212.54342,55.360539 V 189.77704 M 204.14237,55.360539 V 189.77704 M 195.74134,55.360539 V 189.77704 M 187.34032,55.360539 V 189.77704 M 178.93927,55.360539 V 189.77704 M 170.53824,55.360539 V 189.77704 M 162.13722,55.360539 V 189.77704 M 153.73617,55.360539 V 189.77704 M 145.33515,55.360539 V 189.77704 M 136.9341,55.360539 V 189.77704 M 128.53307,55.360539 V 189.77704 M 120.13204,55.360539 V 189.77704 M 111.73102,55.360539 V 189.77704"
       style="display:inline;opacity:1;fill:#803300;stroke:#803300;stroke-width:1.05833328;stroke-linecap:square;stroke-linejoin:round;stroke-miterlimit:4;stroke-dasharray:none;stroke-opacity:1"
       id="path2609" />
  </g>
</svg>
