<?xml version="1.0" encoding="UTF-8" standalone="no"?>
<svg
   xmlns:dc="http://purl.org/dc/elements/1.1/"
   xmlns:cc="http://creativecommons.org/ns#"
   xmlns:rdf="http://www.w3.org/1999/02/22-rdf-syntax-ns#"
   xmlns:svg="http://www.w3.org/2000/svg"
   xmlns="http://www.w3.org/2000/svg"
   id="svg8"
   version="1.1"
   viewBox="0 0 16.933333 16.933334"
   height="64"
   width="64">
  <defs
     id="defs2">
    <filter
       height="1.12"
       y="-0.059999999"
       width="1.12"
       x="-0.059999999"
       id="filter839"
       style="color-interpolation-filters:sRGB">
      <feGaussianBlur
         id="feGaussianBlur841"
         stdDeviation="1.4" />
    </filter>
  </defs>
  <metadata
     id="metadata5">
    <rdf:RDF>
      <cc:Work
         rdf:about="">
        <dc:format>image/svg+xml</dc:format>
        <dc:type
           rdf:resource="http://purl.org/dc/dcmitype/StillImage" />
        <dc:title></dc:title>
      </cc:Work>
    </rdf:RDF>
  </metadata>
  <g
     transform="translate(0,-118.53332)"
     id="layer5">
    <path
       id="rect815"
       d="m 1.0583331,119.59165 v 5.29167 h 1.0583334 l 1.0583334,1.05833 h 6.3500004 l -1.058334,-6.35 z m 8.4666672,0 1.0583327,6.35 h 4.233333 l 1.058334,1.05833 v -7.40833 z m 6.3499997,7.40833 -1.058334,1.05834 h -4.233333 l -1.0583327,6.35 H 15.875 Z m -14.8166669,1.05834 v 6.35 h 7.4083332 l 1.058334,-6.35 z"
       style="opacity:1;fill:#c87137;fill-opacity:1;stroke:none;stroke-width:0.5291667;stroke-linecap:butt;stroke-linejoin:round;stroke-miterlimit:4;stroke-dasharray:none;stroke-dashoffset:0;stroke-opacity:1;paint-order:stroke fill markers" />
    <path
       transform="matrix(0.26458334,0,0,0.26458334,0.16933317,118.70265)"
       style="opacity:1;fill:#c87137;fill-opacity:1;stroke:none;stroke-width:2;stroke-linecap:butt;stroke-linejoin:round;stroke-miterlimit:4;stroke-dasharray:none;stroke-dashoffset:0;stroke-opacity:1;paint-order:stroke fill markers;filter:url(#filter839)"
       d="M 3.3599999,3.3599999 V 23.36 h 4 l 4.0000001,4 h 24 l -4,-24.0000001 z m 32.0000001,0 4,24.0000001 h 16 l 4,4 V 3.3599999 Z m 24,28.0000001 -4,4 h -16 l -4,24 h 24 z m -56.0000001,4 v 24 H 31.36 l 4,-24 z"
       id="path825" />
  </g>
</svg>
