<?xml version="1.0" encoding="UTF-8" standalone="no"?>
<svg
   xmlns:dc="http://purl.org/dc/elements/1.1/"
   xmlns:cc="http://creativecommons.org/ns#"
   xmlns:rdf="http://www.w3.org/1999/02/22-rdf-syntax-ns#"
   xmlns:svg="http://www.w3.org/2000/svg"
   xmlns="http://www.w3.org/2000/svg"
   id="svg8"
   version="1.1"
   viewBox="0 0 135.46666 135.46667"
   height="512"
   width="512">
  <defs
     id="defs2">
    <filter
       height="1.2123077"
       y="-0.10615384"
       width="1.276"
       x="-0.13800001"
       id="filter881"
       style="color-interpolation-filters:sRGB">
      <feGaussianBlur
         id="feGaussianBlur883"
         stdDeviation="4.8683333" />
    </filter>
  </defs>
  <metadata
     id="metadata5">
    <rdf:RDF>
      <cc:Work
         rdf:about="">
        <dc:format>image/svg+xml</dc:format>
        <dc:type
           rdf:resource="http://purl.org/dc/dcmitype/StillImage" />
        <dc:title></dc:title>
      </cc:Work>
    </rdf:RDF>
  </metadata>
  <g
     id="layer5">
    <path
       d="M 97.366666,122.76667 110.06667,114.3 M 97.366666,21.166662 110.06667,12.699995 m -84.666671,8.466667 12.7,-8.466667 m -12.7,110.066675 12.7,-8.46667 m 0,1e-5 V 12.699995 H 110.06667 V 114.3 Z m -12.7,8.46666 V 21.166662 H 97.366666 V 122.76667 Z"
       style="fill:none;stroke:#c87137;stroke-width:2.11666656;stroke-linecap:butt;stroke-linejoin:round;stroke-miterlimit:4;stroke-dasharray:none;stroke-opacity:1"
       id="path870" />
    <path
       id="path875"
       style="fill:none;stroke:#c87137;stroke-width:2.11666656;stroke-linecap:butt;stroke-linejoin:round;stroke-miterlimit:4;stroke-dasharray:none;stroke-opacity:1;filter:url(#filter881)"
       d="M 97.366666,122.76667 110.06667,114.3 M 97.366666,21.166661 110.06667,12.699994 m -84.666671,8.466667 12.7,-8.466667 m -12.7,110.066676 12.7,-8.46667 m 0,1e-5 V 12.699994 H 110.06667 V 114.3 Z m -12.7,8.46666 V 21.166661 H 97.366666 V 122.76667 Z" />
  </g>
</svg>
