<?xml version="1.0" encoding="UTF-8" standalone="no"?>
<svg
   xmlns:dc="http://purl.org/dc/elements/1.1/"
   xmlns:cc="http://creativecommons.org/ns#"
   xmlns:rdf="http://www.w3.org/1999/02/22-rdf-syntax-ns#"
   xmlns:svg="http://www.w3.org/2000/svg"
   xmlns="http://www.w3.org/2000/svg"
   id="svg8"
   version="1.1"
   viewBox="0 0 138.93478 138.93479"
   height="138.93478mm"
   width="138.93478mm">
  <defs
     id="defs2">
    <filter
       id="filter1622"
       style="color-interpolation-filters:sRGB">
      <feGaussianBlur
         id="feGaussianBlur1620"
         result="blur"
         stdDeviation="2 2" />
    </filter>
    <filter
       id="filter1622-9"
       style="color-interpolation-filters:sRGB">
      <feGaussianBlur
         id="feGaussianBlur1620-4"
         result="blur"
         stdDeviation="2 2" />
    </filter>
    <filter
       height="1.072"
       y="-0.035999998"
       width="1.072"
       x="-0.035999998"
       id="filter7972"
       style="color-interpolation-filters:sRGB">
      <feGaussianBlur
         id="feGaussianBlur7974"
         stdDeviation="0.1259259" />
    </filter>
  </defs>
  <metadata
     id="metadata5">
    <rdf:RDF>
      <cc:Work
         rdf:about="">
        <dc:format>image/svg+xml</dc:format>
        <dc:type
           rdf:resource="http://purl.org/dc/dcmitype/StillImage" />
        <dc:title></dc:title>
      </cc:Work>
    </rdf:RDF>
  </metadata>
  <g
     transform="translate(-153.45311,-92.508246)"
     id="layer1">
    <g
       style="stroke:#c87137;stroke-opacity:1"
       transform="matrix(15.438049,0,0,15.438049,222.9205,161.97564)"
       id="g7954">
      <path
         d="m 2.47715,-0.49736 0.77554,-0.15571 0.05136,-0.00415 0.89348,0.32104 V 0.33618 L 3.30405,0.65722 3.25269,0.65307 2.47715,0.49736 2.10329,1.39992 2.76179,1.83821 2.80104,1.87159 3.20582,2.73039 2.73039,3.20582 1.87159,2.80104 1.83821,2.76179 1.39992,2.10329 0.49736,2.47715 0.65307,3.25269 0.65722,3.30405 0.33618,4.19753 H -0.33618 L -0.65722,3.30405 -0.65307,3.25269 -0.49736,2.47715 -1.39992,2.10329 -1.83821,2.76179 -1.87159,2.80104 -2.73039,3.20582 -3.20582,2.73039 -2.80104,1.87159 -2.76179,1.83821 -2.10329,1.39992 -2.47715,0.49736 -3.25269,0.65307 -3.30405,0.65722 -4.19753,0.33618 v -0.67236 l 0.89348,-0.32104 0.05136,0.00415 0.77554,0.15571 0.37386,-0.90256 -0.6585,-0.43829 -0.03925,-0.03338 -0.40478,-0.8588 0.47543,-0.47543 0.8588,0.40478 0.03338,0.03925 0.43829,0.6585 0.90256,-0.37386 -0.15571,-0.77554 -0.00415,-0.05136 0.32104,-0.89348 h 0.67236 l 0.32104,0.89348 -0.00415,0.05136 -0.15571,0.77554 0.90256,0.37386 0.43829,-0.6585 0.03338,-0.03925 0.8588,-0.40478 0.47543,0.47543 -0.40478,0.8588 -0.03925,0.03338 -0.6585,0.43829 z"
         style="fill:none;stroke:#c87137;stroke-width:0.26458332;stroke-opacity:1"
         id="path7950" />
      <circle
         r="1.3229166"
         cy="0"
         cx="0"
         style="fill:none;stroke:#c87137;stroke-width:0.26458332;stroke-opacity:1"
         id="path7952" />
    </g>
    <g
       id="g7970"
       transform="matrix(15.438049,0,0,15.438049,222.9205,161.97564)"
       style="stroke:#c87137;stroke-opacity:1;filter:url(#filter7972)">
      <path
         id="path7966"
         style="fill:none;stroke:#c87137;stroke-width:0.26458332;stroke-opacity:1"
         d="m 2.47715,-0.49736 0.77554,-0.15571 0.05136,-0.00415 0.89348,0.32104 V 0.33618 L 3.30405,0.65722 3.25269,0.65307 2.47715,0.49736 2.10329,1.39992 2.76179,1.83821 2.80104,1.87159 3.20582,2.73039 2.73039,3.20582 1.87159,2.80104 1.83821,2.76179 1.39992,2.10329 0.49736,2.47715 0.65307,3.25269 0.65722,3.30405 0.33618,4.19753 H -0.33618 L -0.65722,3.30405 -0.65307,3.25269 -0.49736,2.47715 -1.39992,2.10329 -1.83821,2.76179 -1.87159,2.80104 -2.73039,3.20582 -3.20582,2.73039 -2.80104,1.87159 -2.76179,1.83821 -2.10329,1.39992 -2.47715,0.49736 -3.25269,0.65307 -3.30405,0.65722 -4.19753,0.33618 v -0.67236 l 0.89348,-0.32104 0.05136,0.00415 0.77554,0.15571 0.37386,-0.90256 -0.6585,-0.43829 -0.03925,-0.03338 -0.40478,-0.8588 0.47543,-0.47543 0.8588,0.40478 0.03338,0.03925 0.43829,0.6585 0.90256,-0.37386 -0.15571,-0.77554 -0.00415,-0.05136 0.32104,-0.89348 h 0.67236 l 0.32104,0.89348 -0.00415,0.05136 -0.15571,0.77554 0.90256,0.37386 0.43829,-0.6585 0.03338,-0.03925 0.8588,-0.40478 0.47543,0.47543 -0.40478,0.8588 -0.03925,0.03338 -0.6585,0.43829 z" />
      <circle
         id="circle7968"
         style="fill:none;stroke:#c87137;stroke-width:0.26458332;stroke-opacity:1"
         cx="0"
         cy="0"
         r="1.3229166" />
    </g>
  </g>
</svg>
