<?xml version="1.0" encoding="UTF-8" standalone="no"?>
<svg
   xmlns:dc="http://purl.org/dc/elements/1.1/"
   xmlns:cc="http://creativecommons.org/ns#"
   xmlns:rdf="http://www.w3.org/1999/02/22-rdf-syntax-ns#"
   xmlns:svg="http://www.w3.org/2000/svg"
   xmlns="http://www.w3.org/2000/svg"
   id="svg8"
   version="1.1"
   viewBox="0 0 107.08641 132.4864"
   height="132.4864mm"
   width="107.08641mm">
  <defs
     id="defs2">
    <filter
       height="1.0432"
       y="-0.021600001"
       width="1.054"
       x="-0.026999999"
       id="filter1436"
       style="color-interpolation-filters:sRGB">
      <feGaussianBlur
         id="feGaussianBlur1438"
         stdDeviation="1.143" />
    </filter>
  </defs>
  <metadata
     id="metadata5">
    <rdf:RDF>
      <cc:Work
         rdf:about="">
        <dc:format>image/svg+xml</dc:format>
        <dc:type
           rdf:resource="http://purl.org/dc/dcmitype/StillImage" />
        <dc:title></dc:title>
      </cc:Work>
    </rdf:RDF>
  </metadata>
  <g
     transform="translate(-196.51176,-90.972068)"
     id="layer1">
    <path
       d="m 283.92163,220.71527 16.93333,-12.70001 m -101.6,12.70001 16.93333,-12.7 m 67.73334,-101.6 16.93333,-12.700002 m -101.6,127.000002 v -114.3 h 84.66668 v 114.3 z m 16.93333,-12.7 V 93.715268 h 84.66668 V 208.01527 Z m -16.93333,-101.6 16.93333,-12.700002"
       style="fill:none;stroke:#c87137;stroke-width:4.23333311;stroke-linecap:butt;stroke-linejoin:round;stroke-miterlimit:4;stroke-dasharray:none;stroke-opacity:1"
       id="path1423" />
    <path
       id="path1426"
       style="fill:none;stroke:#c87137;stroke-width:4.23333311;stroke-linecap:butt;stroke-linejoin:round;stroke-miterlimit:4;stroke-dasharray:none;stroke-opacity:1;filter:url(#filter1436)"
       d="m 283.92163,220.71527 16.93333,-12.70001 m -101.6,12.70001 16.93333,-12.7 m 67.73334,-101.6 16.93333,-12.700002 m -101.6,127.000002 v -114.3 h 84.66668 v 114.3 z m 16.93333,-12.7 V 93.715268 h 84.66668 V 208.01527 Z m -16.93333,-101.6 16.93333,-12.700002" />
  </g>
</svg>
