<?xml version="1.0" encoding="UTF-8" standalone="no"?>
<!-- Created with Inkscape (http://www.inkscape.org/) -->

<svg
   xmlns:dc="http://purl.org/dc/elements/1.1/"
   xmlns:cc="http://creativecommons.org/ns#"
   xmlns:rdf="http://www.w3.org/1999/02/22-rdf-syntax-ns#"
   xmlns:svg="http://www.w3.org/2000/svg"
   xmlns="http://www.w3.org/2000/svg"
   xmlns:sodipodi="http://sodipodi.sourceforge.net/DTD/sodipodi-0.dtd"
   xmlns:inkscape="http://www.inkscape.org/namespaces/inkscape"
   width="1024"
   height="1024"
   viewBox="0 0 270.93332 270.93334"
   version="1.1"
   id="svg8"
   inkscape:version="0.92.5 (2060ec1f9f, 2020-04-08)"
   sodipodi:docname="grid (copy).svg">
  <defs
     id="defs2" />
  <sodipodi:namedview
     id="base"
     pagecolor="#595959"
     bordercolor="#666666"
     borderopacity="1.0"
     inkscape:pageopacity="0"
     inkscape:pageshadow="2"
     inkscape:zoom="0.70710678"
     inkscape:cx="665.88437"
     inkscape:cy="437.50231"
     inkscape:document-units="px"
     inkscape:current-layer="layer5"
     showgrid="true"
     inkscape:window-width="1920"
     inkscape:window-height="1016"
     inkscape:window-x="0"
     inkscape:window-y="27"
     inkscape:window-maximized="1"
     units="px"
     inkscape:snap-grids="false"
     inkscape:snap-page="true"
     showguides="false"
     inkscape:snap-bbox="true"
     inkscape:snap-intersection-paths="true">
    <inkscape:grid
       type="xygrid"
       id="grid940"
       spacingx="4.2333333"
       spacingy="4.2333333"
       empspacing="4" />
  </sodipodi:namedview>
  <metadata
     id="metadata5">
    <rdf:RDF>
      <cc:Work
         rdf:about="">
        <dc:format>image/svg+xml</dc:format>
        <dc:type
           rdf:resource="http://purl.org/dc/dcmitype/StillImage" />
        <dc:title></dc:title>
      </cc:Work>
    </rdf:RDF>
  </metadata>
  <g
     inkscape:groupmode="layer"
     id="layer4"
     inkscape:label="Background"
     style="display:inline"
     transform="translate(0,135.46666)"
     sodipodi:insensitive="true">
    <rect
       style="opacity:1;fill:#ffffff;fill-opacity:1;stroke:none;stroke-width:1.05833328;stroke-miterlimit:4;stroke-dasharray:none;stroke-dashoffset:0;stroke-opacity:1"
       id="rect895"
       width="270.93335"
       height="270.93332"
       x="6.0541001e-06"
       y="-135.46664" />
  </g>
  <g
     inkscape:groupmode="layer"
     id="layer5"
     inkscape:label="Content"
     transform="translate(0,135.46666)">
    <path
       id="path2177"
       style="display:inline;opacity:1;fill:#803300;stroke:#863500;stroke-width:1.0501312;stroke-linecap:butt;stroke-linejoin:bevel;stroke-miterlimit:4;stroke-dasharray:none;stroke-opacity:1;paint-order:stroke fill markers"
       d="M 381.12661,-191.02466 H 246.71006 m 134.41655,-8.40105 H 246.71006 m 134.41655,-8.40102 H 246.71006 m 134.41655,-8.40102 H 246.71006 m 134.41655,-8.40105 H 246.71006 m 134.41655,-8.40102 H 246.71006 m 134.41655,-8.40103 H 246.71006 m 134.41655,-8.40104 H 246.71006 m 134.41655,-8.40103 H 246.71006 m 134.41655,-8.40102 H 246.71006 m 134.41655,-8.40103 H 246.71006 m 134.41655,-8.40105 H 246.71006 m 134.41655,-8.40103 H 246.71006 m 134.41655,-8.40104 H 246.71006 m 134.41655,-8.40102 H 246.71006 m 134.41655,-8.40104 H 246.71006 m 134.41655,-8.40104 H 246.71006 m 134.41655,-0.52295 v 135.46556 m -8.40104,-134.94259 v 134.41651 m -8.40102,-134.41651 v 134.41651 m -8.40103,-134.41651 v 134.41651 m -8.40106,-134.41651 v 134.41651 m -8.40102,-134.41651 v 134.41651 m -8.40103,-134.41651 v 134.41651 m -8.40104,-134.41651 v 134.41651 m -8.40103,-134.41651 v 134.41651 m -8.40103,-134.41651 v 134.41651 m -8.40104,-134.41651 v 134.41651 m -8.40103,-134.41651 v 134.41651 m -8.40103,-134.41651 v 134.41651 m -8.40105,-134.41651 v 134.41651 m -8.40103,-134.41651 v 134.41651 m -8.40102,-134.41651 v 134.41651 m -8.40105,-134.87595 v 135.39943 m 0,-0.52348 H 112.29352 m 134.41654,-8.40105 H 112.29352 m 134.41654,-8.40102 H 112.29352 m 134.41654,-8.40102 H 112.29352 m 134.41654,-8.40105 H 112.29352 m 134.41654,-8.40102 H 112.29352 m 134.41654,-8.40103 H 112.29352 m 134.41654,-8.40104 H 112.29352 m 134.41654,-8.40103 H 112.29352 m 134.41654,-8.40102 H 112.29352 m 134.41654,-8.40103 H 112.29352 m 134.41654,-8.40105 H 112.29352 m 134.41654,-8.40103 H 112.29352 m 134.41654,-8.40104 H 112.29352 m 134.41654,-8.40102 H 112.29352 m 134.41654,-8.40104 H 112.29352 m 134.41654,-8.40104 H 112.29352 m 134.41654,-0.52295 v 135.46556 m -8.40103,-134.94259 v 134.41651 m -8.40102,-134.41651 v 134.41651 m -8.40103,-134.41651 v 134.41651 m -8.40106,-134.41651 v 134.41651 m -8.40102,-134.41651 v 134.41651 m -8.40103,-134.41651 v 134.41651 m -8.40104,-134.41651 v 134.41651 m -8.40103,-134.41651 v 134.41651 m -8.40103,-134.41651 v 134.41651 m -8.40104,-134.41651 v 134.41651 m -8.40103,-134.41651 v 134.41651 m -8.40103,-134.41651 v 134.41651 m -8.40105,-134.41651 v 134.41651 m -8.40103,-134.41651 v 134.41651 m -8.40102,-134.41651 v 134.41651 m -8.40105,-134.87595 v 135.39943 M 381.12661,-325.43549 H 246.71006 m 134.41655,-8.40105 H 246.71006 m 134.41655,-8.40103 H 246.71006 m 134.41655,-8.40102 H 246.71006 m 134.41655,-8.40104 H 246.71006 m 134.41655,-8.40103 H 246.71006 m 134.41655,-8.40103 H 246.71006 m 134.41655,-8.40104 H 246.71006 m 134.41655,-8.40103 H 246.71006 m 134.41655,-8.40102 H 246.71006 m 134.41655,-8.40103 H 246.71006 m 134.41655,-8.40105 H 246.71006 m 134.41655,-8.40104 H 246.71006 m 134.41655,-8.40104 H 246.71006 m 134.41655,-8.40102 H 246.71006 M 381.12661,-451.451 H 246.71006 m 134.41655,-8.40104 H 246.71006 m 134.41655,-0.52295 v 135.46556 m -8.40104,-134.94259 v 134.41653 m -8.40102,-134.41653 v 134.41653 m -8.40103,-134.41653 v 134.41653 m -8.40106,-134.41653 v 134.41653 m -8.40102,-134.41653 v 134.41653 m -8.40103,-134.41653 v 134.41653 m -8.40104,-134.41653 v 134.41653 m -8.40103,-134.41653 v 134.41653 m -8.40103,-134.41653 v 134.41653 m -8.40104,-134.41653 v 134.41653 m -8.40103,-134.41653 v 134.41653 m -8.40103,-134.41653 v 134.41653 m -8.40105,-134.41653 v 134.41653 m -8.40103,-134.41653 v 134.41653 m -8.40102,-134.41653 v 134.41653 m -8.40105,-134.87597 v 135.39944 m 0,-0.52347 H 112.29352 m 134.41654,-8.40105 H 112.29352 m 134.41654,-8.40103 H 112.29352 m 134.41654,-8.40102 H 112.29352 m 134.41654,-8.40104 H 112.29352 m 134.41654,-8.40103 H 112.29352 m 134.41654,-8.40103 H 112.29352 m 134.41654,-8.40104 H 112.29352 m 134.41654,-8.40103 H 112.29352 m 134.41654,-8.40102 H 112.29352 m 134.41654,-8.40103 H 112.29352 m 134.41654,-8.40105 H 112.29352 m 134.41654,-8.40104 H 112.29352 m 134.41654,-8.40104 H 112.29352 m 134.41654,-8.40102 H 112.29352 M 246.71006,-451.451 H 112.29352 m 134.41654,-8.40104 H 112.29352 m 134.41654,-0.52295 v 135.46556 m -8.40103,-134.94259 v 134.41653 m -8.40102,-134.41653 v 134.41653 m -8.40103,-134.41653 v 134.41653 m -8.40106,-134.41653 v 134.41653 m -8.40102,-134.41653 v 134.41653 m -8.40103,-134.41653 v 134.41653 m -8.40104,-134.41653 v 134.41653 m -8.40103,-134.41653 v 134.41653 m -8.40103,-134.41653 v 134.41653 m -8.40104,-134.41653 v 134.41653 m -8.40103,-134.41653 v 134.41653 m -8.40103,-134.41653 v 134.41653 m -8.40105,-134.41653 v 134.41653 m -8.40103,-134.41653 v 134.41653 m -8.40102,-134.41653 v 134.41653 m -8.40105,-134.87597 v 135.39944"
       inkscape:connector-curvature="0" />
    <path
       id="path1677"
       style="display:inline;opacity:1;fill:#803300;stroke:#863500;stroke-width:1.05012906;stroke-linecap:butt;stroke-linejoin:miter;stroke-miterlimit:4;stroke-dasharray:none;stroke-opacity:1"
       d="M -74.979119,-171.87707 H -209.39565 m 134.416531,-8.40105 H -209.39565 m 134.416531,-8.40102 H -209.39565 m 134.416531,-8.40103 H -209.39565 m 134.416531,-8.40104 H -209.39565 m 134.416531,-8.40103 H -209.39565 m 134.416531,-8.40103 H -209.39565 m 134.416531,-8.40104 H -209.39565 m 134.416531,-8.40103 H -209.39565 m 134.416531,-8.40102 H -209.39565 m 134.416531,-8.40103 H -209.39565 m 134.416531,-8.40105 H -209.39565 m 134.416531,-8.40104 H -209.39565 m 134.416531,-8.40104 H -209.39565 m 134.416531,-8.40102 H -209.39565 m 134.416531,-8.40104 H -209.39565 m 134.416531,-8.40104 H -209.39565 m 134.416531,-0.52295 V -171.351 m -8.40103,-134.9426 v 134.41653 m -8.40102,-134.41653 v 134.41653 M -100.1822,-306.2936 v 134.41653 m -8.40106,-134.41653 v 134.41653 m -8.40101,-134.41653 v 134.41653 m -8.40104,-134.41653 v 134.41653 m -8.40104,-134.41653 v 134.41653 m -8.40102,-134.41653 v 134.41653 m -8.40104,-134.41653 v 134.41653 m -8.40103,-134.41653 v 134.41653 m -8.40104,-134.41653 v 134.41653 m -8.40102,-134.41653 v 134.41653 m -8.40105,-134.41653 v 134.41653 m -8.40104,-134.41653 v 134.41653 m -8.40101,-134.41653 v 134.41653 m -8.40105,-134.87597 v 135.39944"
       inkscape:connector-curvature="0" />
    <path
       inkscape:connector-curvature="0"
       id="path1747"
       d="m -46.688695,-328.6555 v 67.73333"
       style="display:inline;opacity:1;fill:#803300;stroke:#803300;stroke-width:0.52916664;stroke-linecap:butt;stroke-linejoin:miter;stroke-miterlimit:4;stroke-dasharray:none;stroke-opacity:1" />
    <path
       style="display:inline;opacity:1;fill:#803300;stroke:#803300;stroke-width:0.52916664;stroke-linecap:butt;stroke-linejoin:miter;stroke-miterlimit:4;stroke-dasharray:none;stroke-opacity:1"
       d="m -44.572025,-328.6555 v 67.73333"
       id="path1749"
       inkscape:connector-curvature="0" />
    <path
       style="display:inline;opacity:1;fill:#803300;stroke:#803300;stroke-width:0.52916664;stroke-linecap:butt;stroke-linejoin:miter;stroke-miterlimit:4;stroke-dasharray:none;stroke-opacity:1"
       d="m -42.455365,-328.6555 v 67.73333"
       id="path1751"
       inkscape:connector-curvature="0" />
    <path
       inkscape:connector-curvature="0"
       id="path1753"
       d="m -40.338695,-328.6555 v 67.73333"
       style="display:inline;opacity:1;fill:#803300;stroke:#803300;stroke-width:0.52916664;stroke-linecap:butt;stroke-linejoin:miter;stroke-miterlimit:4;stroke-dasharray:none;stroke-opacity:1" />
    <path
       style="display:inline;opacity:1;fill:#803300;stroke:#803300;stroke-width:0.52916664;stroke-linecap:butt;stroke-linejoin:miter;stroke-miterlimit:4;stroke-dasharray:none;stroke-opacity:1"
       d="m -38.222035,-328.6555 v 67.73333"
       id="path1755"
       inkscape:connector-curvature="0" />
    <path
       inkscape:connector-curvature="0"
       id="path1757"
       d="m -36.105365,-328.6555 v 67.73333"
       style="display:inline;opacity:1;fill:#803300;stroke:#803300;stroke-width:0.52916664;stroke-linecap:butt;stroke-linejoin:miter;stroke-miterlimit:4;stroke-dasharray:none;stroke-opacity:1" />
    <path
       inkscape:connector-curvature="0"
       id="path1759"
       d="m -33.988695,-328.6555 v 67.73333"
       style="display:inline;opacity:1;fill:#803300;stroke:#803300;stroke-width:0.52916664;stroke-linecap:butt;stroke-linejoin:miter;stroke-miterlimit:4;stroke-dasharray:none;stroke-opacity:1" />
    <path
       style="display:inline;opacity:1;fill:#803300;stroke:#803300;stroke-width:0.52916664;stroke-linecap:butt;stroke-linejoin:miter;stroke-miterlimit:4;stroke-dasharray:none;stroke-opacity:1"
       d="m -31.872025,-328.6555 v 67.73333"
       id="path1761"
       inkscape:connector-curvature="0" />
    <path
       style="display:inline;opacity:1;fill:#803300;stroke:#803300;stroke-width:0.52916664;stroke-linecap:butt;stroke-linejoin:miter;stroke-miterlimit:4;stroke-dasharray:none;stroke-opacity:1"
       d="m -29.755365,-328.6555 v 67.73333"
       id="path1763"
       inkscape:connector-curvature="0" />
    <path
       inkscape:connector-curvature="0"
       id="path1765"
       d="m -27.638695,-328.6555 v 67.73333"
       style="display:inline;opacity:1;fill:#803300;stroke:#803300;stroke-width:0.52916664;stroke-linecap:butt;stroke-linejoin:miter;stroke-miterlimit:4;stroke-dasharray:none;stroke-opacity:1" />
    <path
       inkscape:connector-curvature="0"
       id="path1767"
       d="m -25.522035,-328.6555 v 67.73333"
       style="display:inline;opacity:1;fill:#803300;stroke:#803300;stroke-width:0.52916664;stroke-linecap:butt;stroke-linejoin:miter;stroke-miterlimit:4;stroke-dasharray:none;stroke-opacity:1" />
    <path
       style="display:inline;opacity:1;fill:#803300;stroke:#803300;stroke-width:0.52916664;stroke-linecap:butt;stroke-linejoin:miter;stroke-miterlimit:4;stroke-dasharray:none;stroke-opacity:1"
       d="m -23.405365,-328.6555 v 67.73333"
       id="path1769"
       inkscape:connector-curvature="0" />
    <path
       inkscape:connector-curvature="0"
       id="path1771"
       d="m -21.288695,-328.6555 v 67.73333"
       style="display:inline;opacity:1;fill:#803300;stroke:#803300;stroke-width:0.52916664;stroke-linecap:butt;stroke-linejoin:miter;stroke-miterlimit:4;stroke-dasharray:none;stroke-opacity:1" />
    <path
       style="display:inline;opacity:1;fill:#803300;stroke:#803300;stroke-width:0.52916664;stroke-linecap:butt;stroke-linejoin:miter;stroke-miterlimit:4;stroke-dasharray:none;stroke-opacity:1"
       d="m -19.172034,-328.6555 v 67.73333"
       id="path1773"
       inkscape:connector-curvature="0" />
    <path
       style="display:inline;opacity:1;fill:#803300;stroke:#803300;stroke-width:0.52916664;stroke-linecap:butt;stroke-linejoin:miter;stroke-miterlimit:4;stroke-dasharray:none;stroke-opacity:1"
       d="m -17.055364,-328.6555 v 67.73333"
       id="path1775"
       inkscape:connector-curvature="0" />
    <path
       inkscape:connector-curvature="0"
       id="path1777"
       d="m -14.938695,-328.6555 v 67.73333"
       style="display:inline;opacity:1;fill:#803300;stroke:#803300;stroke-width:0.52916664;stroke-linecap:butt;stroke-linejoin:miter;stroke-miterlimit:4;stroke-dasharray:none;stroke-opacity:1" />
    <path
       style="display:inline;opacity:1;fill:#803300;stroke:#803300;stroke-width:0.52916664;stroke-linecap:butt;stroke-linejoin:miter;stroke-miterlimit:4;stroke-dasharray:none;stroke-opacity:1"
       d="m -12.822034,-328.6555 v 67.73333"
       id="path1779"
       inkscape:connector-curvature="0" />
    <path
       inkscape:connector-curvature="0"
       id="path1781"
       d="m -10.705364,-328.6555 v 67.73333"
       style="display:inline;opacity:1;fill:#803300;stroke:#803300;stroke-width:0.52916664;stroke-linecap:butt;stroke-linejoin:miter;stroke-miterlimit:4;stroke-dasharray:none;stroke-opacity:1" />
    <path
       inkscape:connector-curvature="0"
       id="path1783"
       d="m -8.5886954,-328.6555 v 67.73333"
       style="display:inline;opacity:1;fill:#803300;stroke:#803300;stroke-width:0.52916664;stroke-linecap:butt;stroke-linejoin:miter;stroke-miterlimit:4;stroke-dasharray:none;stroke-opacity:1" />
    <path
       style="display:inline;opacity:1;fill:#803300;stroke:#803300;stroke-width:0.52916664;stroke-linecap:butt;stroke-linejoin:miter;stroke-miterlimit:4;stroke-dasharray:none;stroke-opacity:1"
       d="m -6.4720344,-328.6555 v 67.73333"
       id="path1785"
       inkscape:connector-curvature="0" />
    <path
       inkscape:connector-curvature="0"
       id="path1787"
       d="m -4.3553654,-328.6555 v 67.73333"
       style="display:inline;opacity:1;fill:#803300;stroke:#803300;stroke-width:0.52916664;stroke-linecap:butt;stroke-linejoin:miter;stroke-miterlimit:4;stroke-dasharray:none;stroke-opacity:1" />
    <path
       style="display:inline;opacity:1;fill:#803300;stroke:#803300;stroke-width:0.52916664;stroke-linecap:butt;stroke-linejoin:miter;stroke-miterlimit:4;stroke-dasharray:none;stroke-opacity:1"
       d="m -2.2386954,-328.6555 v 67.73333"
       id="path1789"
       inkscape:connector-curvature="0" />
    <path
       style="display:inline;opacity:1;fill:#803300;stroke:#803300;stroke-width:0.52916664;stroke-linecap:butt;stroke-linejoin:miter;stroke-miterlimit:4;stroke-dasharray:none;stroke-opacity:1"
       d="m -0.12203437,-328.6555 v 67.73333"
       id="path1791"
       inkscape:connector-curvature="0" />
    <path
       inkscape:connector-curvature="0"
       id="path1793"
       d="m 1.9946346,-328.6555 v 67.73333"
       style="display:inline;opacity:1;fill:#803300;stroke:#803300;stroke-width:0.52916664;stroke-linecap:butt;stroke-linejoin:miter;stroke-miterlimit:4;stroke-dasharray:none;stroke-opacity:1" />
    <path
       inkscape:connector-curvature="0"
       id="path1795"
       d="m 4.1113046,-328.6555 v 67.73333"
       style="display:inline;opacity:1;fill:#803300;stroke:#803300;stroke-width:0.52916664;stroke-linecap:butt;stroke-linejoin:miter;stroke-miterlimit:4;stroke-dasharray:none;stroke-opacity:1" />
    <path
       style="display:inline;opacity:1;fill:#803300;stroke:#803300;stroke-width:0.52916664;stroke-linecap:butt;stroke-linejoin:miter;stroke-miterlimit:4;stroke-dasharray:none;stroke-opacity:1"
       d="m 6.2279656,-328.6555 v 67.73333"
       id="path1797"
       inkscape:connector-curvature="0" />
    <path
       style="display:inline;opacity:1;fill:#803300;stroke:#803300;stroke-width:0.52916664;stroke-linecap:butt;stroke-linejoin:miter;stroke-miterlimit:4;stroke-dasharray:none;stroke-opacity:1"
       d="m 8.3446346,-328.6555 v 67.73333"
       id="path1799"
       inkscape:connector-curvature="0" />
    <path
       inkscape:connector-curvature="0"
       id="path1801"
       d="m 10.461305,-328.6555 v 67.73333"
       style="display:inline;opacity:1;fill:#803300;stroke:#803300;stroke-width:0.52916664;stroke-linecap:butt;stroke-linejoin:miter;stroke-miterlimit:4;stroke-dasharray:none;stroke-opacity:1" />
    <path
       style="display:inline;opacity:1;fill:#803300;stroke:#803300;stroke-width:0.52916664;stroke-linecap:butt;stroke-linejoin:miter;stroke-miterlimit:4;stroke-dasharray:none;stroke-opacity:1"
       d="m 12.577966,-328.6555 v 67.73333"
       id="path1803"
       inkscape:connector-curvature="0" />
    <path
       inkscape:connector-curvature="0"
       id="path1805"
       d="m 14.694638,-328.6555 v 67.73333"
       style="display:inline;opacity:1;fill:#803300;stroke:#803300;stroke-width:0.52916664;stroke-linecap:butt;stroke-linejoin:miter;stroke-miterlimit:4;stroke-dasharray:none;stroke-opacity:1" />
    <path
       inkscape:connector-curvature="0"
       id="path1807"
       d="m 16.811307,-328.6555 v 67.73333"
       style="display:inline;opacity:1;fill:#803300;stroke:#803300;stroke-width:0.52916664;stroke-linecap:butt;stroke-linejoin:miter;stroke-miterlimit:4;stroke-dasharray:none;stroke-opacity:1" />
    <path
       style="display:inline;opacity:1;fill:#803300;stroke:#803300;stroke-width:0.52916664;stroke-linecap:butt;stroke-linejoin:miter;stroke-miterlimit:4;stroke-dasharray:none;stroke-opacity:1"
       d="m 18.927969,-328.6555 v 67.73333"
       id="path1809"
       inkscape:connector-curvature="0" />
    <path
       inkscape:connector-curvature="0"
       id="path1811"
       d="m 21.044638,-328.6555 v 67.73333"
       style="display:inline;opacity:1;fill:#803300;stroke:#803300;stroke-width:0.52916664;stroke-linecap:butt;stroke-linejoin:miter;stroke-miterlimit:4;stroke-dasharray:none;stroke-opacity:1" />
    <path
       style="display:inline;opacity:1;fill:#803300;stroke:#803300;stroke-width:0.52916664;stroke-linecap:butt;stroke-linejoin:miter;stroke-miterlimit:4;stroke-dasharray:none;stroke-opacity:1"
       d="M 21.044627,-328.65551 H -46.688695"
       id="path1813"
       inkscape:connector-curvature="0" />
    <path
       inkscape:connector-curvature="0"
       id="path1815"
       d="M 21.044627,-326.53884 H -46.688695"
       style="display:inline;opacity:1;fill:#803300;stroke:#803300;stroke-width:0.52916664;stroke-linecap:butt;stroke-linejoin:miter;stroke-miterlimit:4;stroke-dasharray:none;stroke-opacity:1" />
    <path
       inkscape:connector-curvature="0"
       id="path1817"
       d="M 21.044627,-324.42217 H -46.688695"
       style="display:inline;opacity:1;fill:#803300;stroke:#803300;stroke-width:0.52916664;stroke-linecap:butt;stroke-linejoin:miter;stroke-miterlimit:4;stroke-dasharray:none;stroke-opacity:1" />
    <path
       style="display:inline;opacity:1;fill:#803300;stroke:#803300;stroke-width:0.52916664;stroke-linecap:butt;stroke-linejoin:miter;stroke-miterlimit:4;stroke-dasharray:none;stroke-opacity:1"
       d="M 21.044627,-322.30551 H -46.688695"
       id="path1819"
       inkscape:connector-curvature="0" />
    <path
       inkscape:connector-curvature="0"
       id="path1821"
       d="M 21.044627,-320.18884 H -46.688695"
       style="display:inline;opacity:1;fill:#803300;stroke:#803300;stroke-width:0.52916664;stroke-linecap:butt;stroke-linejoin:miter;stroke-miterlimit:4;stroke-dasharray:none;stroke-opacity:1" />
    <path
       style="display:inline;opacity:1;fill:#803300;stroke:#803300;stroke-width:0.52916664;stroke-linecap:butt;stroke-linejoin:miter;stroke-miterlimit:4;stroke-dasharray:none;stroke-opacity:1"
       d="M 21.044627,-318.07217 H -46.688695"
       id="path1823"
       inkscape:connector-curvature="0" />
    <path
       style="display:inline;opacity:1;fill:#803300;stroke:#803300;stroke-width:0.52916664;stroke-linecap:butt;stroke-linejoin:miter;stroke-miterlimit:4;stroke-dasharray:none;stroke-opacity:1"
       d="M 21.044627,-315.95551 H -46.688695"
       id="path1825"
       inkscape:connector-curvature="0" />
    <path
       inkscape:connector-curvature="0"
       id="path1827"
       d="M 21.044627,-313.83884 H -46.688695"
       style="display:inline;opacity:1;fill:#803300;stroke:#803300;stroke-width:0.52916664;stroke-linecap:butt;stroke-linejoin:miter;stroke-miterlimit:4;stroke-dasharray:none;stroke-opacity:1" />
    <path
       inkscape:connector-curvature="0"
       id="path1829"
       d="M 21.044627,-311.72217 H -46.688695"
       style="display:inline;opacity:1;fill:#803300;stroke:#803300;stroke-width:0.52916664;stroke-linecap:butt;stroke-linejoin:miter;stroke-miterlimit:4;stroke-dasharray:none;stroke-opacity:1" />
    <path
       style="display:inline;opacity:1;fill:#803300;stroke:#803300;stroke-width:0.52916664;stroke-linecap:butt;stroke-linejoin:miter;stroke-miterlimit:4;stroke-dasharray:none;stroke-opacity:1"
       d="M 21.044627,-309.60551 H -46.688695"
       id="path1831"
       inkscape:connector-curvature="0" />
    <path
       style="display:inline;opacity:1;fill:#803300;stroke:#803300;stroke-width:0.52916664;stroke-linecap:butt;stroke-linejoin:miter;stroke-miterlimit:4;stroke-dasharray:none;stroke-opacity:1"
       d="M 21.044627,-307.48884 H -46.688695"
       id="path1833"
       inkscape:connector-curvature="0" />
    <path
       inkscape:connector-curvature="0"
       id="path1835"
       d="M 21.044627,-305.37217 H -46.688695"
       style="display:inline;opacity:1;fill:#803300;stroke:#803300;stroke-width:0.52916664;stroke-linecap:butt;stroke-linejoin:miter;stroke-miterlimit:4;stroke-dasharray:none;stroke-opacity:1" />
    <path
       style="display:inline;opacity:1;fill:#803300;stroke:#803300;stroke-width:0.52916664;stroke-linecap:butt;stroke-linejoin:miter;stroke-miterlimit:4;stroke-dasharray:none;stroke-opacity:1"
       d="M 21.044627,-303.25551 H -46.688695"
       id="path1837"
       inkscape:connector-curvature="0" />
    <path
       inkscape:connector-curvature="0"
       id="path1839"
       d="M 21.044627,-301.13884 H -46.688695"
       style="display:inline;opacity:1;fill:#803300;stroke:#803300;stroke-width:0.52916664;stroke-linecap:butt;stroke-linejoin:miter;stroke-miterlimit:4;stroke-dasharray:none;stroke-opacity:1" />
    <path
       inkscape:connector-curvature="0"
       id="path1841"
       d="M 21.044627,-299.02217 H -46.688695"
       style="display:inline;opacity:1;fill:#803300;stroke:#803300;stroke-width:0.52916664;stroke-linecap:butt;stroke-linejoin:miter;stroke-miterlimit:4;stroke-dasharray:none;stroke-opacity:1" />
    <path
       style="display:inline;opacity:1;fill:#803300;stroke:#803300;stroke-width:0.52916664;stroke-linecap:butt;stroke-linejoin:miter;stroke-miterlimit:4;stroke-dasharray:none;stroke-opacity:1"
       d="M 21.044627,-296.90551 H -46.688695"
       id="path1843"
       inkscape:connector-curvature="0" />
    <path
       inkscape:connector-curvature="0"
       id="path1845"
       d="M 21.044627,-294.78884 H -46.688695"
       style="display:inline;opacity:1;fill:#803300;stroke:#803300;stroke-width:0.52916664;stroke-linecap:butt;stroke-linejoin:miter;stroke-miterlimit:4;stroke-dasharray:none;stroke-opacity:1" />
    <path
       style="display:inline;opacity:1;fill:#803300;stroke:#803300;stroke-width:0.52916664;stroke-linecap:butt;stroke-linejoin:miter;stroke-miterlimit:4;stroke-dasharray:none;stroke-opacity:1"
       d="M 21.044627,-292.67217 H -46.688695"
       id="path1847"
       inkscape:connector-curvature="0" />
    <path
       style="display:inline;opacity:1;fill:#803300;stroke:#803300;stroke-width:0.52916664;stroke-linecap:butt;stroke-linejoin:miter;stroke-miterlimit:4;stroke-dasharray:none;stroke-opacity:1"
       d="M 21.044627,-290.55551 H -46.688695"
       id="path1849"
       inkscape:connector-curvature="0" />
    <path
       inkscape:connector-curvature="0"
       id="path1851"
       d="M 21.044627,-288.43884 H -46.688695"
       style="display:inline;opacity:1;fill:#803300;stroke:#803300;stroke-width:0.52916664;stroke-linecap:butt;stroke-linejoin:miter;stroke-miterlimit:4;stroke-dasharray:none;stroke-opacity:1" />
    <path
       style="display:inline;opacity:1;fill:#803300;stroke:#803300;stroke-width:0.52916664;stroke-linecap:butt;stroke-linejoin:miter;stroke-miterlimit:4;stroke-dasharray:none;stroke-opacity:1"
       d="M 21.044627,-286.32217 H -46.688695"
       id="path1853"
       inkscape:connector-curvature="0" />
    <path
       inkscape:connector-curvature="0"
       id="path1855"
       d="M 21.044627,-284.20551 H -46.688695"
       style="display:inline;opacity:1;fill:#803300;stroke:#803300;stroke-width:0.52916664;stroke-linecap:butt;stroke-linejoin:miter;stroke-miterlimit:4;stroke-dasharray:none;stroke-opacity:1" />
    <path
       inkscape:connector-curvature="0"
       id="path1857"
       d="M 21.044627,-282.08884 H -46.688695"
       style="display:inline;opacity:1;fill:#803300;stroke:#803300;stroke-width:0.52916664;stroke-linecap:butt;stroke-linejoin:miter;stroke-miterlimit:4;stroke-dasharray:none;stroke-opacity:1" />
    <path
       style="display:inline;opacity:1;fill:#803300;stroke:#803300;stroke-width:0.52916664;stroke-linecap:butt;stroke-linejoin:miter;stroke-miterlimit:4;stroke-dasharray:none;stroke-opacity:1"
       d="M 21.044627,-279.97217 H -46.688695"
       id="path1859"
       inkscape:connector-curvature="0" />
    <path
       style="display:inline;opacity:1;fill:#803300;stroke:#803300;stroke-width:0.52916664;stroke-linecap:butt;stroke-linejoin:miter;stroke-miterlimit:4;stroke-dasharray:none;stroke-opacity:1"
       d="M 21.044627,-277.85551 H -46.688695"
       id="path1861"
       inkscape:connector-curvature="0" />
    <path
       inkscape:connector-curvature="0"
       id="path1863"
       d="M 21.044627,-275.73884 H -46.688695"
       style="display:inline;opacity:1;fill:#803300;stroke:#803300;stroke-width:0.52916664;stroke-linecap:butt;stroke-linejoin:miter;stroke-miterlimit:4;stroke-dasharray:none;stroke-opacity:1" />
    <path
       inkscape:connector-curvature="0"
       id="path1865"
       d="M 21.044627,-273.62217 H -46.688695"
       style="display:inline;opacity:1;fill:#803300;stroke:#803300;stroke-width:0.52916664;stroke-linecap:butt;stroke-linejoin:miter;stroke-miterlimit:4;stroke-dasharray:none;stroke-opacity:1" />
    <path
       style="display:inline;opacity:1;fill:#803300;stroke:#803300;stroke-width:0.52916664;stroke-linecap:butt;stroke-linejoin:miter;stroke-miterlimit:4;stroke-dasharray:none;stroke-opacity:1"
       d="M 21.044627,-271.50551 H -46.688695"
       id="path1867"
       inkscape:connector-curvature="0" />
    <path
       inkscape:connector-curvature="0"
       id="path1869"
       d="M 21.044627,-269.38884 H -46.688695"
       style="display:inline;opacity:1;fill:#803300;stroke:#803300;stroke-width:0.52916664;stroke-linecap:butt;stroke-linejoin:miter;stroke-miterlimit:4;stroke-dasharray:none;stroke-opacity:1" />
    <path
       style="display:inline;opacity:1;fill:#803300;stroke:#803300;stroke-width:0.52916664;stroke-linecap:butt;stroke-linejoin:miter;stroke-miterlimit:4;stroke-dasharray:none;stroke-opacity:1"
       d="M 21.044627,-267.27217 H -46.688695"
       id="path1871"
       inkscape:connector-curvature="0" />
    <path
       style="display:inline;opacity:1;fill:#803300;stroke:#803300;stroke-width:0.52916664;stroke-linecap:butt;stroke-linejoin:miter;stroke-miterlimit:4;stroke-dasharray:none;stroke-opacity:1"
       d="M 21.044627,-265.15551 H -46.688695"
       id="path1873"
       inkscape:connector-curvature="0" />
    <path
       inkscape:connector-curvature="0"
       id="path1875"
       d="M 21.044627,-263.03884 H -46.688695"
       style="display:inline;opacity:1;fill:#803300;stroke:#803300;stroke-width:0.52916664;stroke-linecap:butt;stroke-linejoin:miter;stroke-miterlimit:4;stroke-dasharray:none;stroke-opacity:1" />
    <path
       style="display:inline;opacity:1;fill:#803300;stroke:#803300;stroke-width:0.52916664;stroke-linecap:butt;stroke-linejoin:miter;stroke-miterlimit:4;stroke-dasharray:none;stroke-opacity:1"
       d="M 21.044627,-260.92217 H -46.688695"
       id="path1877"
       inkscape:connector-curvature="0" />
    <path
       inkscape:connector-curvature="0"
       id="path1879"
       d="m -47.23705,-250.92347 v 67.73333"
       style="display:inline;opacity:1;fill:#803300;stroke:#803300;stroke-width:0.52916664;stroke-linecap:butt;stroke-linejoin:miter;stroke-miterlimit:4;stroke-dasharray:none;stroke-opacity:1" />
    <path
       style="display:inline;opacity:1;fill:#803300;stroke:#803300;stroke-width:0.52916664;stroke-linecap:butt;stroke-linejoin:miter;stroke-miterlimit:4;stroke-dasharray:none;stroke-opacity:1"
       d="m -43.00372,-250.92347 v 67.73333"
       id="path1881"
       inkscape:connector-curvature="0" />
    <path
       style="display:inline;opacity:1;fill:#803300;stroke:#803300;stroke-width:0.52916664;stroke-linecap:butt;stroke-linejoin:miter;stroke-miterlimit:4;stroke-dasharray:none;stroke-opacity:1"
       d="m -38.77039,-250.92347 v 67.73333"
       id="path1883"
       inkscape:connector-curvature="0" />
    <path
       inkscape:connector-curvature="0"
       id="path1885"
       d="m -34.53706,-250.92347 v 67.73333"
       style="display:inline;opacity:1;fill:#803300;stroke:#803300;stroke-width:0.52916664;stroke-linecap:butt;stroke-linejoin:miter;stroke-miterlimit:4;stroke-dasharray:none;stroke-opacity:1" />
    <path
       style="display:inline;opacity:1;fill:#803300;stroke:#803300;stroke-width:0.52916664;stroke-linecap:butt;stroke-linejoin:miter;stroke-miterlimit:4;stroke-dasharray:none;stroke-opacity:1"
       d="m -30.30372,-250.92347 v 67.73333"
       id="path1887"
       inkscape:connector-curvature="0" />
    <path
       inkscape:connector-curvature="0"
       id="path1889"
       d="m -26.07039,-250.92347 v 67.73333"
       style="display:inline;opacity:1;fill:#803300;stroke:#803300;stroke-width:0.52916664;stroke-linecap:butt;stroke-linejoin:miter;stroke-miterlimit:4;stroke-dasharray:none;stroke-opacity:1" />
    <path
       inkscape:connector-curvature="0"
       id="path1891"
       d="m -21.83705,-250.92347 v 67.73333"
       style="display:inline;opacity:1;fill:#803300;stroke:#803300;stroke-width:0.52916664;stroke-linecap:butt;stroke-linejoin:miter;stroke-miterlimit:4;stroke-dasharray:none;stroke-opacity:1" />
    <path
       style="display:inline;opacity:1;fill:#803300;stroke:#803300;stroke-width:0.52916664;stroke-linecap:butt;stroke-linejoin:miter;stroke-miterlimit:4;stroke-dasharray:none;stroke-opacity:1"
       d="m -17.603721,-250.92347 v 67.73333"
       id="path1893"
       inkscape:connector-curvature="0" />
    <path
       style="display:inline;opacity:1;fill:#803300;stroke:#803300;stroke-width:0.52916664;stroke-linecap:butt;stroke-linejoin:miter;stroke-miterlimit:4;stroke-dasharray:none;stroke-opacity:1"
       d="m -13.37039,-250.92347 v 67.73333"
       id="path1895"
       inkscape:connector-curvature="0" />
    <path
       inkscape:connector-curvature="0"
       id="path1897"
       d="m -9.1370491,-250.92347 v 67.73333"
       style="display:inline;opacity:1;fill:#803300;stroke:#803300;stroke-width:0.52916664;stroke-linecap:butt;stroke-linejoin:miter;stroke-miterlimit:4;stroke-dasharray:none;stroke-opacity:1" />
    <path
       inkscape:connector-curvature="0"
       id="path1899"
       d="m -4.9037211,-250.92347 v 67.73333"
       style="display:inline;opacity:1;fill:#803300;stroke:#803300;stroke-width:0.52916664;stroke-linecap:butt;stroke-linejoin:miter;stroke-miterlimit:4;stroke-dasharray:none;stroke-opacity:1" />
    <path
       style="display:inline;opacity:1;fill:#803300;stroke:#803300;stroke-width:0.52916664;stroke-linecap:butt;stroke-linejoin:miter;stroke-miterlimit:4;stroke-dasharray:none;stroke-opacity:1"
       d="m -0.67039004,-250.92347 v 67.73333"
       id="path1901"
       inkscape:connector-curvature="0" />
    <path
       inkscape:connector-curvature="0"
       id="path1903"
       d="m 3.5629509,-250.92347 v 67.73333"
       style="display:inline;opacity:1;fill:#803300;stroke:#803300;stroke-width:0.52916664;stroke-linecap:butt;stroke-linejoin:miter;stroke-miterlimit:4;stroke-dasharray:none;stroke-opacity:1" />
    <path
       style="display:inline;opacity:1;fill:#803300;stroke:#803300;stroke-width:0.52916664;stroke-linecap:butt;stroke-linejoin:miter;stroke-miterlimit:4;stroke-dasharray:none;stroke-opacity:1"
       d="m 7.7962789,-250.92347 v 67.73333"
       id="path1905"
       inkscape:connector-curvature="0" />
    <path
       style="display:inline;opacity:1;fill:#803300;stroke:#803300;stroke-width:0.52916664;stroke-linecap:butt;stroke-linejoin:miter;stroke-miterlimit:4;stroke-dasharray:none;stroke-opacity:1"
       d="m 12.02961,-250.92347 v 67.73333"
       id="path1907"
       inkscape:connector-curvature="0" />
    <path
       inkscape:connector-curvature="0"
       id="path1909"
       d="m 16.262951,-250.92347 v 67.73333"
       style="display:inline;opacity:1;fill:#803300;stroke:#803300;stroke-width:0.52916664;stroke-linecap:butt;stroke-linejoin:miter;stroke-miterlimit:4;stroke-dasharray:none;stroke-opacity:1" />
    <path
       inkscape:connector-curvature="0"
       id="path1911"
       d="m 20.496281,-250.92347 v 67.73333"
       style="display:inline;opacity:1;fill:#803300;stroke:#803300;stroke-width:0.52916664;stroke-linecap:butt;stroke-linejoin:miter;stroke-miterlimit:4;stroke-dasharray:none;stroke-opacity:1" />
    <path
       style="display:inline;opacity:1;fill:#803300;stroke:#803300;stroke-width:0.52916664;stroke-linecap:butt;stroke-linejoin:miter;stroke-miterlimit:4;stroke-dasharray:none;stroke-opacity:1"
       d="M 20.496273,-250.92348 H -47.23706"
       id="path1913"
       inkscape:connector-curvature="0" />
    <path
       inkscape:connector-curvature="0"
       id="path1915"
       d="M 20.496273,-246.69014 H -47.23706"
       style="display:inline;opacity:1;fill:#803300;stroke:#803300;stroke-width:0.52916664;stroke-linecap:butt;stroke-linejoin:miter;stroke-miterlimit:4;stroke-dasharray:none;stroke-opacity:1" />
    <path
       inkscape:connector-curvature="0"
       id="path1917"
       d="M 20.496273,-242.45681 H -47.23706"
       style="display:inline;opacity:1;fill:#803300;stroke:#803300;stroke-width:0.52916664;stroke-linecap:butt;stroke-linejoin:miter;stroke-miterlimit:4;stroke-dasharray:none;stroke-opacity:1" />
    <path
       style="display:inline;opacity:1;fill:#803300;stroke:#803300;stroke-width:0.52916664;stroke-linecap:butt;stroke-linejoin:miter;stroke-miterlimit:4;stroke-dasharray:none;stroke-opacity:1"
       d="M 20.496273,-238.22348 H -47.23706"
       id="path1919"
       inkscape:connector-curvature="0" />
    <path
       inkscape:connector-curvature="0"
       id="path1921"
       d="M 20.496273,-233.99014 H -47.23706"
       style="display:inline;opacity:1;fill:#803300;stroke:#803300;stroke-width:0.52916664;stroke-linecap:butt;stroke-linejoin:miter;stroke-miterlimit:4;stroke-dasharray:none;stroke-opacity:1" />
    <path
       style="display:inline;opacity:1;fill:#803300;stroke:#803300;stroke-width:0.52916664;stroke-linecap:butt;stroke-linejoin:miter;stroke-miterlimit:4;stroke-dasharray:none;stroke-opacity:1"
       d="M 20.496273,-229.75681 H -47.23706"
       id="path1923"
       inkscape:connector-curvature="0" />
    <path
       style="display:inline;opacity:1;fill:#803300;stroke:#803300;stroke-width:0.52916664;stroke-linecap:butt;stroke-linejoin:miter;stroke-miterlimit:4;stroke-dasharray:none;stroke-opacity:1"
       d="M 20.496273,-225.52348 H -47.23706"
       id="path1925"
       inkscape:connector-curvature="0" />
    <path
       inkscape:connector-curvature="0"
       id="path1927"
       d="M 20.496273,-221.29014 H -47.23706"
       style="display:inline;opacity:1;fill:#803300;stroke:#803300;stroke-width:0.52916664;stroke-linecap:butt;stroke-linejoin:miter;stroke-miterlimit:4;stroke-dasharray:none;stroke-opacity:1" />
    <path
       inkscape:connector-curvature="0"
       id="path1929"
       d="M 20.496273,-217.05681 H -47.23706"
       style="display:inline;opacity:1;fill:#803300;stroke:#803300;stroke-width:0.52916664;stroke-linecap:butt;stroke-linejoin:miter;stroke-miterlimit:4;stroke-dasharray:none;stroke-opacity:1" />
    <path
       style="display:inline;opacity:1;fill:#803300;stroke:#803300;stroke-width:0.52916664;stroke-linecap:butt;stroke-linejoin:miter;stroke-miterlimit:4;stroke-dasharray:none;stroke-opacity:1"
       d="M 20.496273,-212.82348 H -47.23706"
       id="path1931"
       inkscape:connector-curvature="0" />
    <path
       style="display:inline;opacity:1;fill:#803300;stroke:#803300;stroke-width:0.52916664;stroke-linecap:butt;stroke-linejoin:miter;stroke-miterlimit:4;stroke-dasharray:none;stroke-opacity:1"
       d="M 20.496273,-208.59014 H -47.23706"
       id="path1933"
       inkscape:connector-curvature="0" />
    <path
       inkscape:connector-curvature="0"
       id="path1935"
       d="M 20.496273,-204.35681 H -47.23706"
       style="display:inline;opacity:1;fill:#803300;stroke:#803300;stroke-width:0.52916664;stroke-linecap:butt;stroke-linejoin:miter;stroke-miterlimit:4;stroke-dasharray:none;stroke-opacity:1" />
    <path
       style="display:inline;opacity:1;fill:#803300;stroke:#803300;stroke-width:0.52916664;stroke-linecap:butt;stroke-linejoin:miter;stroke-miterlimit:4;stroke-dasharray:none;stroke-opacity:1"
       d="M 20.496273,-200.12348 H -47.23706"
       id="path1937"
       inkscape:connector-curvature="0" />
    <path
       inkscape:connector-curvature="0"
       id="path1939"
       d="M 20.496273,-195.89014 H -47.23706"
       style="display:inline;opacity:1;fill:#803300;stroke:#803300;stroke-width:0.52916664;stroke-linecap:butt;stroke-linejoin:miter;stroke-miterlimit:4;stroke-dasharray:none;stroke-opacity:1" />
    <path
       inkscape:connector-curvature="0"
       id="path1941"
       d="M 20.496273,-191.65681 H -47.23706"
       style="display:inline;opacity:1;fill:#803300;stroke:#803300;stroke-width:0.52916664;stroke-linecap:butt;stroke-linejoin:miter;stroke-miterlimit:4;stroke-dasharray:none;stroke-opacity:1" />
    <path
       style="display:inline;opacity:1;fill:#803300;stroke:#803300;stroke-width:0.52916664;stroke-linecap:butt;stroke-linejoin:miter;stroke-miterlimit:4;stroke-dasharray:none;stroke-opacity:1"
       d="M 20.496273,-187.42348 H -47.23706"
       id="path1943"
       inkscape:connector-curvature="0" />
    <path
       style="display:inline;opacity:1;fill:#803300;stroke:#803300;stroke-width:0.52916664;stroke-linecap:butt;stroke-linejoin:miter;stroke-miterlimit:4;stroke-dasharray:none;stroke-opacity:1"
       d="M 20.496273,-183.19014 H -47.23706"
       id="path1945"
       inkscape:connector-curvature="0" />
    <path
       id="path2609"
       style="display:inline;opacity:1;fill:#803300;stroke:#803300;stroke-width:1.05833328;stroke-linecap:square;stroke-linejoin:round;stroke-miterlimit:4;stroke-dasharray:none;stroke-opacity:1"
       d="M 268.82485,1.0583383 H 134.40832 M 268.82485,-7.3427016 H 134.40832 M 268.82485,-15.743731 H 134.40832 m 134.41653,-8.40102 H 134.40832 m 134.41653,-8.40105 H 134.40832 m 134.41653,-8.401026 H 134.40832 m 134.41653,-8.40103 H 134.40832 m 134.41653,-8.40104 H 134.40832 m 134.41653,-8.40103 H 134.40832 m 134.41653,-8.40102 H 134.40832 m 134.41653,-8.40106 H 134.40832 m 134.41653,-8.40102 H 134.40832 m 134.41653,-8.401026 H 134.40832 m 134.41653,-8.401027 H 134.40832 m 134.41653,-8.40102 H 134.40832 m 134.41653,-8.40104 H 134.40832 m 134.41653,-8.40104 H 134.40832 m 134.41655,2e-5 V 1.0583383 M 260.42384,-133.35816 V 1.0583383 M 252.02279,-133.35816 V 1.0583383 M 243.62177,-133.35816 V 1.0583383 M 235.22074,-133.35816 V 1.0583383 M 226.81969,-133.35816 V 1.0583383 M 218.41866,-133.35816 V 1.0583383 M 210.01764,-133.35816 V 1.0583383 M 201.61659,-133.35816 V 1.0583383 M 193.21556,-133.35816 V 1.0583383 M 184.81453,-133.35816 V 1.0583383 M 176.41349,-133.35816 V 1.0583383 M 168.01246,-133.35816 V 1.0583383 M 159.61142,-133.35816 V 1.0583383 M 151.21039,-133.35816 V 1.0583383 M 142.80936,-133.35816 V 1.0583383 M 134.40833,-133.35816 V 1.0583383 m 0.008,0 H -1.9949612e-5 M 134.41651,-7.3427016 H -1.9949612e-5 M 134.41651,-15.743731 H -1.9949612e-5 M 134.41651,-24.144751 H -1.9949612e-5 M 134.41651,-32.545801 H -1.9949612e-5 M 134.41651,-40.946827 H -1.9949612e-5 M 134.41651,-49.347857 H -1.9949612e-5 M 134.41651,-57.748897 H -1.9949612e-5 M 134.41651,-66.149927 H -1.9949612e-5 M 134.41651,-74.550947 H -1.9949612e-5 M 134.41651,-82.952007 H -1.9949612e-5 M 134.41651,-91.353027 H -1.9949612e-5 M 134.41651,-99.754053 H -1.9949612e-5 M 134.41651,-108.15508 H -1.9949612e-5 M 134.41651,-116.5561 H -1.9949612e-5 M 134.41651,-124.95714 H -1.9949612e-5 M 134.41651,-133.35818 H -1.9949612e-5 M 134.41653,-133.35816 V 1.0583383 M 126.0155,-133.35816 V 1.0583383 M 117.61445,-133.35816 V 1.0583383 M 109.21343,-133.35816 V 1.0583383 M 100.8124,-133.35816 V 1.0583383 M 92.41135,-133.35816 V 1.0583383 M 84.010322,-133.35816 V 1.0583383 M 75.609299,-133.35816 V 1.0583383 M 67.208251,-133.35816 V 1.0583383 M 58.807223,-133.35816 V 1.0583383 M 50.406198,-133.35816 V 1.0583383 M 42.005152,-133.35816 V 1.0583383 M 33.604126,-133.35816 V 1.0583383 M 25.20308,-133.35816 V 1.0583383 M 16.802053,-133.35816 V 1.0583383 M 8.4010263,-133.35816 V 1.0583383 M -4.9613949e-8,-133.35816 V 1.0583383 M 268.82485,135.46667 H 134.40832 m 134.41653,-8.40104 H 134.40832 M 268.82485,118.6646 H 134.40832 m 134.41653,-8.40102 H 134.40832 m 134.41653,-8.40105 H 134.40832 M 268.82485,93.461504 H 134.40832 m 134.41653,-8.40103 H 134.40832 m 134.41653,-8.40104 H 134.40832 m 134.41653,-8.40103 H 134.40832 m 134.41653,-8.40102 H 134.40832 m 134.41653,-8.40106 H 134.40832 m 134.41653,-8.40102 H 134.40832 M 268.82485,34.654282 H 134.40832 M 268.82485,26.253246 H 134.40832 m 134.41653,-8.40102 H 134.40832 M 268.82485,9.4511862 H 134.40832 m 134.41653,-8.40104 H 134.40832 m 134.41655,2e-5 V 135.46667 M 260.42384,1.0501662 V 135.46667 M 252.02279,1.0501662 V 135.46667 M 243.62177,1.0501662 V 135.46667 M 235.22074,1.0501662 V 135.46667 M 226.81969,1.0501662 V 135.46667 M 218.41866,1.0501662 V 135.46667 M 210.01764,1.0501662 V 135.46667 M 201.61659,1.0501662 V 135.46667 M 193.21556,1.0501662 V 135.46667 M 184.81453,1.0501662 V 135.46667 M 176.41349,1.0501662 V 135.46667 M 168.01246,1.0501662 V 135.46667 M 159.61142,1.0501662 V 135.46667 M 151.21039,1.0501662 V 135.46667 M 142.80936,1.0501662 V 135.46667 M 134.40833,1.0501662 V 135.46667 m 0.008,0 H -1.9949612e-5 M 134.41651,127.06563 H -1.9949612e-5 M 134.41651,118.6646 H -1.9949612e-5 M 134.41651,110.26358 H -1.9949612e-5 M 134.41651,101.86253 H -1.9949612e-5 M 134.41651,93.461504 H -1.9949612e-5 M 134.41651,85.060474 H -1.9949612e-5 M 134.41651,76.659434 H -1.9949612e-5 M 134.41651,68.258404 H -1.9949612e-5 M 134.41651,59.857384 H -1.9949612e-5 M 134.41651,51.456324 H -1.9949612e-5 M 134.41651,43.055304 H -1.9949612e-5 M 134.41651,34.654282 H -1.9949612e-5 M 134.41651,26.253246 H -1.9949612e-5 M 134.41651,17.852226 H -1.9949612e-5 M 134.41651,9.4511862 H -1.9949612e-5 M 134.41651,1.0501462 H -1.9949612e-5 M 134.41653,1.0501662 V 135.46667 M 126.0155,1.0501662 V 135.46667 M 117.61445,1.0501662 V 135.46667 M 109.21343,1.0501662 V 135.46667 M 100.8124,1.0501662 V 135.46667 M 92.41135,1.0501662 V 135.46667 M 84.010322,1.0501662 V 135.46667 M 75.609299,1.0501662 V 135.46667 M 67.208251,1.0501662 V 135.46667 M 58.807223,1.0501662 V 135.46667 M 50.406198,1.0501662 V 135.46667 M 42.005152,1.0501662 V 135.46667 M 33.604126,1.0501662 V 135.46667 M 25.20308,1.0501662 V 135.46667 M 16.802053,1.0501662 V 135.46667 M 8.4010263,1.0501662 V 135.46667 M -4.9613949e-8,1.0501662 V 135.46667" />
  </g>
</svg>
